<svg xmlns="http://www.w3.org/2000/svg" version="1.1" xmlns:xlink="http://www.w3.org/1999/xlink" xmlns:svgjs="http://svgjs.dev/svgjs" viewBox="0 0 1422 800"><defs><linearGradient x1="50%" y1="0%" x2="50%" y2="100%" id="ccchaos-grad"><stop stop-color="hsl(206, 75%, 49%)" stop-opacity="1" offset="0%"></stop><stop stop-color="hsl(331, 90%, 56%)" stop-opacity="1" offset="100%"></stop></linearGradient></defs><g stroke-width="4" stroke="url(#ccchaos-grad)" fill="none" stroke-linecap="round"><path d="M691.72 -287.21C700.21 -287.33 717.02 -287.35 725.34 -287.24 733.62 -287.07 750 -286.4 758.09 -285.86 768.86 -285.05 779.49 -283.89 789.98 -282.35 800.48 -280.72 810.86 -278.71 821.12 -276.34 831.42 -273.9 841.63 -271.13 851.78 -268.06 862 -264.99 872.19 -261.66 882.38 -258.12 892.69 -254.63 903.05 -250.95 913.5 -247.09 924.12 -243.3 934.89 -239.31 945.82 -235.13 957 -230.97 968.4 -226.57 980.04 -221.92 991.98 -217.21 1004.2 -212.21 1016.71 -206.9 1029.51 -201.48 1042.6 -195.73 1055.97 -189.66 1069.57 -183.49 1083.38 -177 1097.36 -170.24 1111.44 -163.42 1125.56 -156.37 1139.62 -149.13 1153.55 -141.92 1167.25 -134.57 1180.57 -127.12 1193.48 -119.8 1205.79 -112.41 1217.36 -104.98 1228.2 -97.74 1238.08 -90.46 1246.87 -83.17 1254.69 -76.06 1261.28 -68.9 1266.57 -61.7 1270.81 -54.62 1273.75 -47.46 1275.4 -40.17 1276.19 -32.94 1275.89 -25.54 1274.63 -17.95 1272.97 -10.33 1270.75 -2.47 1268.21 5.63 1265.95 13.84 1263.87 22.34 1262.27 31.12 1261.72 40.05 1262.13 49.28 1263.76 58.81 1267.02 68.49 1271.81 78.47 1278.21 88.71 1286.42 99.11 1296.2 109.76 1307.45 120.64 1320.11 131.66 1333.78 142.87 1348.14 154.26 1362.95 165.76 1377.67 177.4 1391.86 189.16 1405.24 201.02 1417.24 212.96 1427.43 224.98 1435.69 237.06 1441.53 249.2 1444.74 261.37 1445.52 273.58 1443.58 285.81 1439.02 298.04 1432.43 310.31 1423.79 322.56 1413.49 334.79 1408.02 340.91 1402.32 347.03 1396.47 353.13 1390.63 359.24 1384.78 365.34 1379 371.42 1373.44 377.51 1368.08 383.58 1362.99 389.63 1358.33 395.69 1354.06 401.73 1350.24 407.74 1347.01 413.76 1344.32 419.72 1342.22 425.62 1340.37 434.44 1340.71 451.77 1342.85 460.26 1345.09 465.9 1347.83 471.48 1351.03 476.98 1358.88 487.96 1367.95 498.66 1377.75 509.07 1388.13 519.43 1398.18 529.48 1407.39 539.21 1415.67 548.9 1422.23 558.26 1426.73 567.3 1429.27 576.31 1429.34 585 1426.89 593.38 1422.22 601.76 1415.17 609.87 1405.97 617.74 1395.05 625.67 1382.54 633.41 1368.81 641.03 1354.36 648.8 1339.43 656.53 1324.4 664.29 1309.72 672.34 1295.6 680.53 1282.32 688.94 1270.2 697.8 1259.3 706.99 1249.71 716.6 1241.66 726.78 1234.99 737.47 1229.63 748.72 1225.72 760.59 1222.89 773.04 1220.98 786.07 1220.08 799.65 1219.72 813.71 1219.67 828.19 1220.07 842.97 1220.37 857.94 1220.39 872.95 1220.3 887.84 1219.6 902.42 1218.17 916.48 1216.22 929.88 1213.34 942.37 1209.48 953.73 1204.91 963.93 1199.3 972.67 1192.69 979.81 1185.33 985.48 1177.03 989.44 1167.87 991.67 1158.06 992.55 1147.51 991.92 1136.32 989.93 1124.66 987.2 1112.51 983.67 1099.96 979.66 1087.13 975.92 1074.05 972.46 1060.8 969.67 1047.43 968.25 1033.99 968.21 1020.54 969.83 1007.1 973.58 993.72 979.32 980.44 987.11 967.24 997.03 954.16 1008.72 941.23 1021.9 928.41 1036.3 915.74 1051.34 903.23 1066.46 890.82 1081.23 878.56 1094.93 866.43 1106.99 854.39 1117.09 842.47 1124.62 830.64 1129.22 818.89 1131 807.22 1129.65 795.62 1125.26 784.06 1118.47 772.55 1109.35 761.08 1098.45 755.36 1092.68 749.64 1086.71 743.93 1080.64 738.23 1074.66 732.52 1068.76 726.83 1063.04 721.13 1057.67 715.44 1052.65 709.75 1048.07 704.06 1044.08 698.37 1040.65 692.69 1037.85 684.18 1035.14 667.32 1034.5 658.98 1036.55 653.43 1038.89 647.91 1041.84 642.42 1045.36 636.93 1049.46 631.48 1053.99 626.06 1058.88 615.2 1069.68 604.48 1080.88 593.9 1091.77 583.3 1102.06 572.83 1110.72 562.5 1117.23 552.14 1121.51 541.91 1122.91 531.81 1121.33 521.68 1117.03 511.66 1109.88 501.77 1100.17 491.82 1088.47 481.98 1075.02 472.24 1060.38 462.44 1045.19 452.72 1029.87 443.08 1014.92 433.35 1000.92 423.69 988.15 414.09 976.9 404.39 967.53 394.75 960.03 385.16 954.4 375.45 950.8 365.81 948.86 356.23 948.34 346.55 949.3 336.94 951.12 327.43 953.44 317.86 956.3 308.4 959.01 299.09 961.23 289.78 963.06 280.65 963.88 271.73 963.49 262.87 962.08 254.26 959.18 245.94 954.77 237.73 949.09 229.84 941.9 222.28 933.3 214.86 923.55 207.78 912.6 201.04 900.63 194.42 887.86 188.1 874.37 182.06 860.34 176.06 845.95 170.28 831.32 164.67 816.61 158.98 801.92 153.36 787.36 147.79 773.05 142.01 759.02 136.19 745.35 130.3 732.08 124.12 719.23 117.84 706.81 111.46 694.81 104.81 683.25 98.12 672.07 91.43 661.23 84.6 650.78 77.9 640.6 71.43 630.63 65.04 620.95 59.05 611.4 53.56 601.92 48.39 592.65 43.89 583.37 40.1 574.04 36.81 564.82 34.3 555.5 32.59 546.04 31.36 536.63 30.84 527.04 30.98 517.25 31.36 507.47 32.19 497.47 33.35 487.24 34.39 477 35.49 466.51 36.53 455.79 37.02 447.71 37.46 431.24 37.35 422.85 36.9 414.41 35.29 397.22 34.14 388.49 33.21 382.65 32.22 376.8 31.19 370.92 30.06 365.05 28.92 359.16 27.79 353.26 26.6 347.36 25.46 341.46 24.37 335.54 23.29 329.63 22.3 323.71 21.43 317.79 19.86 305.97 18.92 294.15 18.72 282.35 19.03 270.59 20.19 258.87 22.22 247.21 24.82 235.62 28.25 224.11 32.43 212.71 37.03 201.39 42.22 190.21 47.89 179.18 53.68 168.25 59.74 157.51 65.95 146.96 72.01 136.54 78.05 126.33 84.02 116.37 89.64 106.53 95.11 96.93 100.42 87.6 105.35 78.38 110.15 69.41 114.85 60.71 119.27 52.08 123.69 43.69 128.17 35.54 132.53 27.41 137.07 19.48 141.84 11.72 146.65 3.92 151.79 -3.73 157.28 -11.28 162.93 -18.94 168.98 -26.54 175.43 -34.09 182.06 -41.81 189.09 -49.51 196.49 -57.21 204.04 -65.1 211.93 -72.98 220.1 -80.85 228.36 -88.9 236.85 -96.91 245.54 -104.86 254.22 -112.92 263.05 -120.86 272 -128.65 280.88 -136.47 289.84 -144.07 298.87 -151.42 307.8 -158.71 316.78 -165.7 325.81 -172.37 334.73 -178.92 343.71 -185.13 352.74 -191.01 361.69 -196.77 370.72 -202.21 379.83 -207.34 388.88 -212.41 398.04 -217.22 407.32 -221.8 416.57 -226.38 425.96 -230.77 435.49 -234.96 445.03 -239.23 454.71 -243.32 464.55 -247.23 474.42 -251.21 484.44 -254.98 494.61 -258.52 504.83 -262.08 515.19 -265.36 525.69 -268.33 536.24 -271.25 546.92 -273.82 557.71 -276.04 568.54 -278.17 579.48 -279.95 590.51 -281.37 601.58 -282.74 612.72 -283.8 623.92 -284.58 632.34 -285.14 649.24 -286.01 657.72 -286.33 666.2 -286.64 683.2 -287.08 691.71 -287.21" stroke-dasharray="7 4" transform="rotate(0, 711, 400)" opacity="0.23"></path><path d="M688.54 -261.72C699.36 -261.81 710.11 -261.66 720.78 -261.25 731.45 -260.85 742.06 -260.17 752.59 -259.2 763.13 -258.2 773.62 -256.88 784.05 -255.25 794.51 -253.58 804.93 -251.59 815.34 -249.31 825.79 -247.01 836.26 -244.43 846.74 -241.61 857.32 -238.82 867.96 -235.8 878.67 -232.58 889.51 -229.43 900.47 -226.08 911.56 -222.55 922.82 -219.07 934.26 -215.38 945.87 -211.49 957.69 -207.59 969.71 -203.44 981.94 -199.03 994.36 -194.55 1007 -189.76 1019.82 -184.66 1032.79 -179.44 1045.91 -173.89 1059.13 -168 1072.4 -161.99 1085.69 -155.67 1098.93 -149.05 1112.05 -142.36 1124.98 -135.41 1137.61 -128.25 1149.92 -121.1 1161.77 -113.78 1173.03 -106.34 1183.73 -99 1193.68 -91.59 1202.76 -84.12 1211.07 -76.83 1218.38 -69.51 1224.62 -62.19 1229.98 -55.06 1234.22 -47.92 1237.32 -40.76 1239.62 -33.78 1240.89 -26.77 1241.18 -19.69 1240.96 -12.74 1240.02 -5.69 1238.53 1.47 1237.01 8.59 1235.32 15.88 1233.69 23.35 1232.65 30.84 1232.1 38.55 1232.27 46.5 1233.63 54.53 1236.08 62.81 1239.76 71.35 1245.01 80.01 1251.66 88.93 1259.73 98.12 1269.32 107.43 1280.19 117 1292.16 126.8 1305.15 136.74 1318.77 146.89 1332.7 157.25 1346.72 167.71 1360.35 178.36 1373.2 189.16 1385.06 200.06 1395.42 211.08 1403.95 222.21 1410.61 233.42 1414.98 244.72 1416.92 256.07 1416.67 267.48 1414 278.93 1409.02 290.41 1402.31 301.92 1393.83 313.44 1383.97 324.94 1373.51 336.46 1362.57 347.96 1351.66 359.41 1341.62 370.87 1332.57 382.27 1324.93 393.59 1319.39 404.91 1315.92 416.01 1314.61 426.87 1315.74 437.72 1318.93 448.33 1323.97 458.69 1330.87 469.03 1338.96 479.12 1347.83 488.95 1357.38 498.77 1366.8 508.33 1375.64 517.64 1383.84 526.95 1390.65 536.03 1395.76 544.87 1399.24 553.75 1400.57 562.43 1399.66 570.94 1396.75 579.53 1391.63 588 1384.41 596.39 1375.49 604.93 1364.89 613.45 1352.9 622.02 1339.95 630.82 1326.23 639.75 1312.07 648.86 1297.87 658.32 1283.84 668.03 1270.23 678.07 1257.39 688.54 1245.41 699.39 1234.44 710.66 1224.7 722.4 1216.14 734.58 1208.76 747.2 1202.71 760.23 1197.76 773.64 1193.81 787.37 1190.96 801.34 1188.85 815.48 1187.3 829.67 1186.45 843.8 1185.83 857.74 1185.27 871.31 1184.93 884.42 1184.34 896.87 1183.36 908.47 1182.2 919.19 1180.41 928.77 1177.93 937.08 1174.98 944.19 1171.22 949.86 1166.61 954.03 1161.41 956.96 1155.36 958.44 1148.47 958.54 1141 957.74 1132.76 955.88 1123.8 953.2 1114.35 950.3 1104.3 947.12 1093.71 943.99 1082.76 941.55 1071.39 939.8 1059.68 939.05 1047.73 939.84 1035.56 942.13 1023.21 946.09 1010.74 952.03 998.19 959.76 985.59 969.21 972.97 980.39 960.36 992.89 947.79 1006.41 935.25 1020.67 922.79 1035.1 910.41 1049.2 898.09 1062.62 885.87 1074.73 873.76 1085.04 861.71 1093.37 849.76 1099.19 837.92 1102.26 826.13 1102.76 814.44 1100.45 802.84 1095.46 791.28 1088.43 779.8 1079.42 768.4 1068.93 757.02 1057.91 745.7 1046.64 734.44 1035.75 723.19 1026.22 711.99 1018.26 700.83 1012.37 689.68 1009.19 678.69 1008.62 667.86 1010.62 657.02 1015.31 646.34 1022.08 635.8 1030.49 625.25 1040.35 614.84 1050.73 604.57 1061.01 594.27 1070.96 584.11 1079.63 574.08 1086.54 564 1091.61 554.05 1094.19 544.21 1094.12 534.32 1091.6 524.54 1086.4 514.86 1078.72 505.1 1069.01 495.44 1057.41 485.86 1044.36 476.2 1030.41 466.61 1015.91 457.09 1001.31 447.48 987.16 437.92 973.72 428.43 961.34 418.83 950.4 409.29 940.96 399.81 933.13 390.24 927.12 380.74 922.73 371.32 919.81 361.84 918.48 352.45 918.27 343.17 918.91 333.87 920.47 324.72 922.34 315.73 924.24 306.77 926.25 298 927.76 289.47 928.56 281.01 928.79 272.8 927.94 264.88 925.92 257.06 922.92 249.54 918.61 242.32 912.99 235.21 906.31 228.4 898.39 221.87 889.33 215.43 879.36 209.23 868.44 203.25 856.73 197.28 844.39 191.47 831.5 185.79 818.19 180.02 804.6 174.3 790.81 168.61 776.94 162.73 763.07 156.82 749.29 150.89 735.66 144.72 722.23 138.5 709.04 132.27 696.14 125.84 683.52 119.45 671.21 113.14 659.21 106.76 647.52 100.59 636.1 94.69 624.95 88.92 614.07 83.56 603.4 78.69 592.91 74.14 582.63 70.18 572.47 66.89 562.39 64 552.45 61.8 542.55 60.28 532.63 59.13 522.81 58.59 512.94 58.59 502.99 58.76 493.09 59.29 483.09 60.1 472.95 60.77 462.84 61.51 452.59 62.2 442.18 62.49 431.78 62.58 421.22 62.41 410.49 61.7 399.77 60.7 388.88 59.45 377.84 57.73 366.8 55.9 355.75 54.08 344.69 52.06 333.64 50.27 322.6 48.82 311.58 47.51 300.59 46.76 289.64 46.63 278.75 46.9 267.9 47.91 257.13 49.67 246.46 51.91 235.85 54.89 225.35 58.55 214.99 62.59 204.7 67.19 194.57 72.27 184.62 77.5 174.75 83.05 165.06 88.81 155.59 94.49 146.2 100.24 137.02 106.01 128.06 111.53 119.18 116.98 110.51 122.33 102.08 127.39 93.68 132.36 85.5 137.26 77.51 141.9 69.53 146.54 61.73 151.21 54.08 155.74 46.39 160.41 38.81 165.24 31.34 170.06 23.76 175.14 16.25 180.5 8.78 185.96 1.15 191.75 -6.46 197.88 -14.07 204.16 -21.87 210.79 -29.68 217.76 -37.5 224.86 -45.5 232.28 -53.5 239.99 -61.47 247.79 -69.59 255.83 -77.65 264.1 -85.62 272.38 -93.65 280.84 -101.53 289.44 -109.23 298 -116.91 306.67 -124.34 315.43 -131.51 324.1 -138.56 332.85 -145.31 341.65 -151.72 350.35 -157.99 359.1 -163.92 367.91 -169.51 376.62 -174.97 385.39 -180.11 394.23 -184.95 402.98 -189.71 411.82 -194.21 420.74 -198.47 429.6 -202.73 438.57 -206.79 447.65 -210.66 456.7 -214.59 465.87 -218.35 475.16 -221.94 484.45 -225.6 493.87 -229.08 503.42 -232.36 512.98 -235.68 522.68 -238.77 532.5 -241.6 542.34 -244.43 552.32 -246.98 562.41 -249.22 572.52 -251.43 582.74 -253.33 593.07 -254.92 603.41 -256.47 613.86 -257.73 624.39 -258.71 634.93 -259.68 645.55 -260.41 656.25 -260.88 666.94 -261.39 677.71 -261.67 688.53 -261.72" stroke-dasharray="5 0" transform="rotate(4.5200000000000005, 711, 400)" opacity="0.32"></path><path d="M690.46 -236.24C700.9 -236.21 711.33 -235.91 721.74 -235.32 732.16 -234.72 742.57 -233.83 752.98 -232.66 763.41 -231.47 773.85 -230.01 784.3 -228.27 794.79 -226.53 805.32 -224.53 815.89 -222.29 826.52 -220.07 837.22 -217.64 847.99 -215 858.85 -212.43 869.82 -209.67 880.89 -206.74 892.07 -203.88 903.39 -200.84 914.85 -197.63 926.42 -194.47 938.15 -191.11 950.02 -187.54 962.01 -183.96 974.14 -180.12 986.39 -176.02 998.72 -171.84 1011.14 -167.35 1023.61 -162.54 1036.09 -157.59 1048.55 -152.31 1060.94 -146.69 1073.21 -140.93 1085.32 -134.84 1097.17 -128.43 1108.75 -121.92 1119.96 -115.13 1130.69 -108.11 1140.98 -101.04 1150.67 -93.79 1159.65 -86.39 1168.04 -79.04 1175.6 -71.59 1182.29 -64.07 1188.27 -56.68 1193.32 -49.26 1197.39 -41.83 1200.78 -34.59 1203.23 -27.34 1204.8 -20.11 1205.84 -13.06 1206.14 -6.02 1205.81 1.03 1205.3 7.92 1204.42 14.85 1203.35 21.83 1202.57 28.7 1201.93 35.67 1201.64 42.74 1202.15 49.76 1203.35 56.93 1205.41 64.27 1208.68 71.61 1213.06 79.14 1218.62 86.89 1225.58 94.68 1233.75 102.69 1243.11 110.94 1253.68 119.26 1265.2 127.81 1277.48 136.58 1290.42 145.45 1303.63 154.54 1316.83 163.83 1329.84 173.21 1342.21 182.79 1353.6 192.54 1363.9 202.38 1372.65 212.37 1379.58 222.5 1384.75 232.7 1387.78 243.02 1388.59 253.43 1387.47 263.89 1384.2 274.44 1378.92 285.03 1372.18 295.67 1363.95 306.35 1354.55 317.04 1344.72 327.76 1334.53 338.48 1324.41 349.19 1315.12 359.91 1306.74 370.61 1299.62 381.26 1294.39 391.92 1291 402.4 1289.53 412.71 1290.26 423.01 1292.84 433.13 1297.1 443.06 1303.11 452.99 1310.26 462.75 1318.2 472.32 1326.9 481.91 1335.64 491.34 1344 500.62 1351.98 509.93 1358.87 519.12 1364.38 528.21 1368.57 537.36 1370.93 546.46 1371.34 555.52 1369.99 564.7 1366.61 573.9 1361.27 583.15 1354.3 592.58 1345.62 602.14 1335.47 611.84 1324.23 621.79 1311.99 631.96 1299.03 642.37 1285.74 653.09 1272.26 664.1 1258.86 675.43 1245.84 687.08 1233.33 699.05 1221.49 711.33 1210.57 723.91 1200.56 736.75 1191.53 749.83 1183.63 763.06 1176.75 776.41 1170.82 789.79 1165.99 803.11 1161.97 816.28 1158.66 829.18 1156.18 841.71 1154.16 853.74 1152.46 865.12 1151.22 875.81 1150.04 885.62 1148.78 894.41 1146.89 905.57 1140.87 920.16 1136.29 923.48 1130.47 924.26 1114.64 920.29 1104.63 916.66 1097.28 914.36 1089.3 912.23 1080.74 910.54 1071.79 909.86 1062.34 910.11 1052.44 911.55 1042.25 914.57 1031.7 919.07 1020.84 925.12 1009.8 932.92 998.53 942.21 987.08 952.87 975.53 964.83 963.86 977.69 952.13 991.11 940.34 1004.83 928.53 1018.34 916.72 1031.19 904.91 1043.11 893.12 1053.55 881.38 1062.13 869.65 1068.75 857.99 1072.98 846.39 1074.67 834.82 1074.06 823.32 1070.94 811.89 1065.5 800.5 1058.34 789.17 1049.52 777.92 1039.49 766.68 1029.13 755.51 1018.62 744.41 1008.53 733.32 999.74 722.28 992.38 711.29 986.89 700.31 983.84 689.5 983.14 678.85 984.74 668.2 988.8 657.7 994.78 647.35 1002.29 636.98 1011.23 626.75 1020.77 616.66 1030.39 606.53 1039.9 596.53 1048.44 586.65 1055.57 576.72 1061.23 566.9 1064.77 557.19 1065.99 547.41 1065.05 537.73 1061.66 528.13 1055.92 518.47 1048.19 508.88 1038.52 499.36 1027.22 489.76 1014.8 480.23 1001.49 470.76 987.69 461.2 973.9 451.71 960.36 442.28 947.42 432.77 935.46 423.33 924.6 413.96 915.02 404.53 906.97 395.19 900.34 385.94 895.12 376.67 891.44 367.51 888.98 358.49 887.57 349.48 887.3 340.64 887.69 331.97 888.5 323.36 889.82 314.96 891.1 306.79 892.13 298.7 893.04 290.87 893.31 283.3 892.8 275.83 891.69 268.63 889.57 261.7 886.38 254.86 882.36 248.27 877.21 241.93 870.97 235.64 863.87 229.55 855.75 223.64 846.72 217.72 836.96 211.92 826.44 206.23 815.27 200.44 803.61 194.7 791.49 189 779.03 183.13 766.31 177.28 753.4 171.42 740.41 165.39 727.36 159.37 714.34 153.39 701.42 147.29 688.58 141.27 675.9 135.41 663.41 129.53 651.09 123.9 638.99 118.57 627.1 113.37 615.4 108.59 603.91 104.28 592.62 100.25 581.5 96.76 570.56 93.85 559.76 91.27 549.1 89.29 538.56 87.88 528.1 86.76 517.75 86.14 507.45 85.97 497.17 85.91 486.97 86.15 476.76 86.63 466.54 86.97 456.35 87.38 446.12 87.77 435.85 87.82 425.59 87.73 415.27 87.46 404.88 86.75 394.5 85.84 384.04 84.76 373.52 83.29 362.99 81.78 352.52 80.3 342.12 78.65 331.72 77.21 321.4 76.07 311.16 75.04 300.93 74.48 290.79 74.45 280.77 74.73 270.76 75.65 260.88 77.21 251.13 79.16 241.42 81.76 231.85 84.98 222.44 88.51 213.07 92.58 203.87 97.11 194.86 101.8 185.88 106.82 177.09 112.1 168.49 117.36 159.92 122.75 151.54 128.22 143.36 133.53 135.18 138.84 127.17 144.13 119.34 149.18 111.49 154.19 103.78 159.17 96.22 163.94 88.58 168.71 81.05 173.51 73.62 178.18 66.07 182.94 58.58 187.83 51.14 192.69 43.53 197.75 35.95 203.04 28.36 208.38 20.59 213.99 12.81 219.9 5.02 225.91 -2.95 232.23 -10.94 238.86 -18.93 245.6 -27.07 252.64 -35.18 259.95 -43.24 267.35 -51.39 275.01 -59.45 282.89 -67.38 290.8 -75.31 298.91 -83.05 307.18 -90.58 315.44 -98.02 323.83 -105.2 332.32 -112.08 340.76 -118.81 349.28 -125.22 357.88 -131.29 366.39 -137.19 374.96 -142.75 383.59 -147.97 392.12 -153.05 400.7 -157.82 409.34 -162.29 417.89 -166.69 426.5 -170.84 435.19 -174.75 443.79 -178.66 452.47 -182.39 461.24 -185.93 469.94 -189.55 478.75 -193.01 487.66 -196.32 496.52 -199.71 505.5 -202.96 514.6 -206.04 523.67 -209.19 532.86 -212.16 542.17 -214.92 551.47 -217.71 560.9 -220.27 570.44 -222.57 579.98 -224.87 589.65 -226.9 599.43 -228.65 609.21 -230.36 619.1 -231.8 629.11 -232.94 639.12 -234.06 649.24 -234.9 659.46 -235.45 669.68 -235.99 680.02 -236.26 690.45 -236.24" stroke-dasharray="2 6" transform="rotate(9.040000000000001, 711, 400)" opacity="0.37"></path><path d="M697.07 -210.76C707.24 -210.63 717.44 -210.18 727.66 -209.44 737.9 -208.65 748.18 -207.58 758.5 -206.24 768.84 -204.88 779.23 -203.27 789.69 -201.42 800.17 -199.59 810.74 -197.55 821.37 -195.31 832.06 -193.13 842.84 -190.79 853.7 -188.28 864.64 -185.87 875.67 -183.31 886.81 -180.61 898.01 -178 909.32 -175.24 920.73 -172.33 932.19 -169.48 943.74 -166.44 955.36 -163.2 967 -159.96 978.69 -156.47 990.38 -152.73 1002.04 -148.9 1013.66 -144.77 1025.18 -140.32 1036.6 -135.74 1047.84 -130.81 1058.85 -125.54 1069.64 -120.11 1080.11 -114.34 1090.17 -108.24 1099.88 -102 1109.1 -95.46 1117.74 -88.66 1125.91 -81.76 1133.41 -74.65 1140.19 -67.35 1146.42 -60.05 1151.87 -52.61 1156.51 -45.07 1160.59 -37.61 1163.87 -30.09 1166.36 -22.54 1168.39 -15.14 1169.74 -7.73 1170.46 -0.33 1170.94 6.88 1170.99 14.08 1170.72 21.27 1170.55 28.28 1170.33 35.28 1170.2 42.3 1170.59 49.15 1171.37 56.04 1172.67 62.99 1174.89 69.81 1177.89 76.72 1181.79 83.74 1186.85 90.68 1192.93 97.75 1200.07 104.97 1208.4 112.17 1217.72 119.53 1227.94 127.07 1239.07 134.63 1250.83 142.37 1263.03 150.31 1275.56 158.29 1288.08 166.47 1300.3 174.83 1312.11 183.25 1323.09 191.86 1332.99 200.65 1341.72 209.49 1348.91 218.5 1354.35 227.66 1358.15 236.88 1359.98 246.23 1359.82 255.72 1357.96 265.24 1354.23 274.88 1348.76 284.61 1342.08 294.37 1334.14 304.22 1325.24 314.13 1316.04 324.06 1306.58 334.04 1297.23 344.07 1288.67 354.11 1280.93 364.18 1274.32 374.28 1269.39 384.38 1266.08 394.38 1264.49 404.28 1264.85 414.19 1266.88 424 1270.43 433.71 1275.59 443.43 1281.84 453.07 1288.88 462.64 1296.73 472.23 1304.72 481.76 1312.54 491.26 1320.17 500.8 1326.98 510.34 1332.7 519.88 1337.39 529.51 1340.55 539.18 1342.04 548.92 1342.03 558.79 1340.2 568.76 1336.58 578.87 1331.44 589.15 1324.64 599.6 1316.36 610.24 1306.91 621.09 1296.33 632.15 1284.85 643.43 1272.79 654.93 1260.27 666.65 1247.52 678.59 1234.84 690.7 1222.32 702.99 1210.17 715.43 1198.59 727.94 1187.65 740.51 1177.43 753.06 1168.11 765.54 1159.62 777.87 1151.99 789.96 1145.32 801.76 1139.46 813.14 1134.34 823.99 1130.08 834.3 1126.41 843.9 1123.22 852.68 1120.65 860.71 1118.35 867.77 1116.21 873.8 1110.48 884.86 1099.26 888.66 1093.78 886.6 1087.33 884.15 1070.99 880.23 1061.14 880.07 1054.04 881.37 1046.43 883.74 1038.33 887.33 1029.95 892.42 1021.13 898.86 1011.93 906.66 1002.51 915.89 992.77 926.29 982.75 937.68 972.58 949.95 962.19 962.71 951.61 975.64 940.95 988.51 930.15 1000.84 919.25 1012.27 908.31 1022.6 897.3 1031.36 886.25 1038.24 875.18 1043.25 864.1 1046.04 853.02 1046.5 841.95 1044.93 830.88 1041.18 819.85 1035.41 808.82 1028.24 797.83 1019.68 786.87 1010.16 775.93 1000.45 765.02 990.69 754.15 981.39 743.3 973.3 732.47 966.52 721.68 961.4 710.9 958.5 700.26 957.68 689.78 958.92 679.29 962.4 668.94 967.62 658.72 974.28 648.49 982.32 638.38 991.02 628.39 999.93 618.36 1008.92 608.45 1017.21 598.64 1024.4 588.79 1030.45 579.03 1034.73 569.37 1037.02 559.64 1037.46 550 1035.69 540.44 1031.75 530.81 1025.94 521.25 1018.19 511.76 1008.76 502.21 998.05 492.72 986.21 483.29 973.58 473.81 960.59 464.39 947.47 455.05 934.52 445.65 922.12 436.34 910.42 427.12 899.62 417.87 889.99 408.73 881.52 399.71 874.27 390.68 868.4 381.8 863.72 373.08 860.14 364.39 857.78 355.88 856.27 347.57 855.45 339.32 855.4 331.29 855.69 323.49 856.1 315.77 856.78 308.3 857.23 301.07 857.3 293.93 857.15 287.04 856.36 280.39 854.81 273.81 852.73 267.44 849.76 261.29 845.86 255.16 841.28 249.21 835.76 243.41 829.34 237.57 822.24 231.85 814.3 226.23 805.61 220.51 796.35 214.85 786.46 209.25 776.03 203.51 765.2 197.81 753.97 192.15 742.42 186.36 730.65 180.63 718.68 174.99 706.6 169.27 694.43 163.69 682.23 158.29 670.06 152.92 657.91 147.81 645.84 143.01 633.88 138.35 622 134.07 610.25 130.24 598.66 126.63 587.16 123.51 575.82 120.9 564.62 118.55 553.53 116.7 542.57 115.34 531.74 114.19 520.99 113.45 510.35 113.1 499.8 112.81 489.32 112.78 478.91 112.94 468.56 112.99 458.25 113.11 447.99 113.24 437.76 113.08 427.55 112.84 417.36 112.51 407.2 111.8 397.04 110.99 386.89 110.07 376.75 108.84 366.61 107.62 356.6 106.45 346.72 105.14 336.83 104.03 327.08 103.2 317.46 102.43 307.85 102.07 298.37 102.16 289.04 102.49 279.72 103.36 270.54 104.79 261.52 106.52 252.51 108.82 243.66 111.65 234.98 114.76 226.3 118.35 217.79 122.37 209.44 126.56 201.09 131.07 192.91 135.87 184.89 140.68 176.84 145.66 168.95 150.78 161.2 155.79 153.41 160.87 145.73 165.98 138.18 170.91 130.55 175.86 123 180.81 115.54 185.59 107.95 190.4 100.42 195.24 92.93 199.96 85.29 204.77 77.66 209.69 70.04 214.56 62.24 219.6 54.44 224.82 46.62 230.07 38.62 235.56 30.61 241.29 22.6 247.09 14.43 253.17 6.28 259.52 -1.83 265.96 -10.06 272.67 -18.21 279.65 -26.28 286.71 -34.37 294.02 -42.31 301.55 -50.08 309.14 -57.79 316.92 -65.28 324.88 -72.51 332.85 -79.61 340.97 -86.41 349.21 -92.89 357.42 -99.21 365.74 -105.18 374.15 -110.8 382.49 -116.25 390.9 -121.37 399.38 -126.14 407.78 -130.79 416.23 -135.14 424.74 -139.21 433.16 -143.22 441.63 -146.99 450.17 -150.55 458.62 -154.13 467.13 -157.54 475.71 -160.79 484.22 -164.13 492.81 -167.34 501.48 -170.42 510.09 -173.62 518.79 -176.7 527.59 -179.64 536.35 -182.69 545.21 -185.59 554.18 -188.33 563.12 -191.12 572.17 -193.73 581.35 -196.11 590.5 -198.51 599.77 -200.66 609.17 -202.55 618.55 -204.41 628.06 -205.99 637.69 -207.27 647.32 -208.5 657.08 -209.43 666.97 -210.04 676.86 -210.59 686.89 -210.84 697.06 -210.76" stroke-dasharray="7 2" transform="rotate(13.559999999999999, 711, 400)" opacity="0.91"></path><path d="M706.84 -185.28C716.8 -185.05 726.81 -184.49 736.87 -183.61 746.94 -182.67 757.06 -181.44 767.25 -179.94 777.45 -178.42 787.72 -176.67 798.05 -174.71 808.41 -172.78 818.84 -170.68 829.34 -168.41 839.88 -166.24 850.49 -163.93 861.17 -161.5 871.88 -159.19 882.66 -156.77 893.49 -154.25 904.34 -151.84 915.23 -149.31 926.15 -146.66 937.06 -144.08 947.97 -141.35 958.85 -138.43 969.68 -135.53 980.44 -132.4 991.09 -129.03 1001.62 -125.59 1011.99 -121.86 1022.14 -117.83 1032.1 -113.67 1041.77 -109.17 1051.1 -104.33 1060.15 -99.32 1068.77 -93.96 1076.92 -88.26 1084.7 -82.4 1091.93 -76.22 1098.57 -69.74 1104.78 -63.13 1110.35 -56.27 1115.25 -49.18 1119.72 -42.03 1123.51 -34.7 1126.64 -27.23 1129.38 -19.78 1131.53 -12.24 1133.1 -4.62 1134.45 2.89 1135.36 10.45 1135.92 18.02 1136.49 25.44 1136.91 32.85 1137.26 40.26 1137.96 47.49 1138.82 54.7 1139.99 61.9 1141.82 68.93 1144.17 75.95 1147.16 82.99 1151.07 89.87 1155.77 96.79 1161.33 103.75 1167.92 110.59 1175.4 117.5 1183.76 124.5 1193.05 131.42 1203.09 138.45 1213.77 145.59 1225.05 152.7 1236.67 159.94 1248.44 167.34 1260.26 174.71 1271.83 182.25 1282.89 189.95 1293.37 197.65 1302.91 205.53 1311.29 213.57 1318.5 221.62 1324.22 229.84 1328.28 238.22 1330.84 246.62 1331.64 255.18 1330.64 263.89 1328.19 272.61 1324.12 281.47 1318.56 290.47 1312.02 299.47 1304.43 308.6 1296.05 317.85 1287.49 327.1 1278.74 336.47 1270.13 345.93 1262.27 355.4 1255.14 364.97 1249.01 374.63 1244.38 384.3 1241.18 393.95 1239.48 403.58 1239.53 413.22 1241.05 422.84 1243.94 432.46 1248.31 442.09 1253.71 451.74 1259.88 461.39 1266.87 471.07 1274.11 480.79 1281.3 490.55 1288.49 500.37 1295.08 510.25 1300.84 520.21 1305.83 530.25 1309.56 540.39 1311.9 550.65 1312.99 561.02 1312.5 571.52 1310.39 582.17 1306.93 592.94 1301.91 603.86 1295.44 614.95 1287.81 626.15 1278.98 637.49 1269.13 648.98 1258.55 660.55 1247.3 672.22 1235.58 683.95 1223.67 695.7 1211.64 707.45 1199.67 719.14 1187.98 730.73 1176.64 742.17 1165.75 753.37 1155.5 764.31 1145.87 774.89 1136.91 785.03 1128.75 794.72 1121.3 803.84 1114.53 812.28 1108.57 820.12 1103.21 827.18 1098.41 833.38 1087.64 846.2 1075.06 854.29 1071.1 853.79 1061.97 851.19 1043.96 850.36 1036.13 853.09 1030.51 856.41 1024.42 860.79 1017.87 866.33 1011.08 873.2 1003.85 881.21 996.22 890.31 988.38 900.51 980.17 911.53 971.63 923.17 962.93 935.31 953.93 947.58 944.68 959.69 935.31 971.43 925.73 982.41 915.96 992.31 906.11 1001.01 896.12 1008.11 886.01 1013.39 875.85 1016.92 865.59 1018.4 855.26 1017.81 844.92 1015.45 834.51 1011.21 824.07 1005.25 813.63 998.15 803.15 989.92 792.66 980.93 782.17 971.88 771.67 962.87 761.16 954.32 750.66 946.9 740.15 940.67 729.64 935.92 719.13 933.16 708.74 932.24 698.46 933.16 688.18 936.09 678.01 940.61 667.94 946.46 657.86 953.64 647.88 961.5 638 969.67 628.09 978.07 618.27 986 608.54 993.11 598.77 999.36 589.08 1004.17 579.47 1007.32 569.81 1008.91 560.23 1008.55 550.72 1006.24 541.16 1002.21 531.67 996.34 522.25 988.78 512.79 979.88 503.39 969.71 494.07 958.53 484.72 946.72 475.45 934.45 466.26 922 457.06 909.71 447.95 897.73 438.95 886.28 429.96 875.63 421.1 865.84 412.37 856.99 403.67 849.28 395.13 842.62 386.76 836.99 378.45 832.51 370.32 828.96 362.39 826.21 354.55 824.39 346.91 823.13 339.5 822.28 332.18 821.98 325.07 821.79 318.2 821.57 311.41 821.48 304.83 821.09 298.47 820.29 292.17 819.27 286.05 817.66 280.12 815.38 274.2 812.66 268.42 809.18 262.79 804.93 257.12 800.15 251.55 794.59 246.08 788.29 240.52 781.46 235.04 773.94 229.62 765.81 224.1 757.22 218.64 748.1 213.26 738.52 207.79 728.61 202.41 718.34 197.15 707.78 191.85 697.01 186.72 686.03 181.79 674.92 176.9 663.69 172.27 652.4 167.95 641.07 163.74 629.72 159.9 618.39 156.46 607.1 153.2 595.84 150.36 584.65 147.95 573.55 145.75 562.49 143.97 551.53 142.61 540.68 141.38 529.88 140.52 519.19 139.97 508.6 139.45 498.05 139.16 487.6 139.05 477.25 138.83 466.93 138.7 456.69 138.61 446.54 138.28 436.41 137.93 426.35 137.54 416.36 136.87 406.38 136.14 396.47 135.38 386.61 134.37 376.76 133.41 367.08 132.53 357.58 131.54 348.06 130.74 338.72 130.19 329.54 129.68 320.35 129.52 311.33 129.75 302.48 130.16 293.61 131.03 284.9 132.36 276.35 133.94 267.79 136 259.38 138.53 251.13 141.28 242.85 144.46 234.72 148.04 226.73 151.76 218.7 155.8 210.8 160.12 203.03 164.48 195.19 169.05 187.46 173.77 179.82 178.44 172.1 183.21 164.46 188.05 156.89 192.78 149.2 197.56 141.55 202.38 133.94 207.07 126.19 211.81 118.46 216.6 110.73 221.29 102.85 226.07 94.96 230.95 87.06 235.79 79 240.76 70.94 245.9 62.87 251.05 54.67 256.4 46.47 261.97 38.29 267.59 30.02 273.44 21.81 279.54 13.66 285.72 5.49 292.15 -2.56 298.82 -10.48 305.57 -18.35 312.56 -26.04 319.77 -33.5 327.04 -40.85 334.51 -47.93 342.17 -54.73 349.85 -61.36 357.7 -67.67 365.69 -73.64 373.68 -79.43 381.78 -84.88 390 -89.98 398.17 -94.92 406.43 -99.54 414.78 -103.83 423.06 -108.02 431.4 -111.93 439.81 -115.59 448.14 -119.21 456.54 -122.63 464.98 -125.85 473.35 -129.13 481.78 -132.26 490.27 -135.27 498.68 -138.39 507.16 -141.41 515.71 -144.34 524.19 -147.4 532.75 -150.37 541.4 -153.25 549.99 -156.25 558.67 -159.14 567.45 -161.89 576.18 -164.72 585.02 -167.38 593.97 -169.86 602.89 -172.35 611.92 -174.62 621.08 -176.63 630.2 -178.61 639.46 -180.3 648.86 -181.7 658.23 -183.01 667.75 -183.99 677.41 -184.65 687.06 -185.2 696.87 -185.41 706.83 -185.28" stroke-dasharray="7 8" transform="rotate(18.080000000000002, 711, 400)" opacity="0.25"></path><path d="M717.56 -159.8C727.32 -159.48 737.11 -158.82 746.95 -157.83 756.79 -156.75 766.68 -155.39 776.62 -153.76 786.56 -152.1 796.56 -150.23 806.59 -148.15 816.65 -146.13 826.74 -143.95 836.87 -141.63 847.01 -139.43 857.17 -137.12 867.36 -134.72 877.54 -132.46 887.73 -130.13 897.9 -127.72 908.06 -125.45 918.17 -123.1 928.22 -120.65 938.22 -118.3 948.12 -115.82 957.9 -113.2 967.58 -110.61 977.08 -107.82 986.37 -104.82 995.51 -101.78 1004.39 -98.47 1012.96 -94.88 1021.31 -91.18 1029.3 -87.15 1036.88 -82.8 1044.19 -78.28 1051.04 -73.41 1057.4 -68.21 1063.43 -62.83 1068.95 -57.11 1073.91 -51.07 1078.54 -44.88 1082.62 -38.4 1086.15 -31.65 1089.39 -24.8 1092.11 -17.72 1094.34 -10.46 1096.39 -3.15 1098.05 4.29 1099.36 11.85 1100.66 19.39 1101.75 27 1102.73 34.66 1103.93 42.22 1105.18 49.82 1106.58 57.41 1108.46 64.88 1110.67 72.33 1113.32 79.78 1116.67 87.07 1120.61 94.34 1125.2 101.61 1130.64 108.72 1136.82 115.83 1143.74 122.95 1151.53 129.92 1160.03 136.93 1169.19 143.97 1179.04 150.9 1189.39 157.89 1200.11 164.94 1211.16 171.91 1222.3 178.97 1233.34 186.14 1244.22 193.24 1254.65 200.46 1264.43 207.8 1273.51 215.1 1281.59 222.55 1288.49 230.13 1294.26 237.69 1298.6 245.4 1301.42 253.27 1302.9 261.11 1302.79 269.12 1301.12 277.27 1298.21 285.42 1293.92 293.72 1288.36 302.18 1282.03 310.63 1274.82 319.23 1266.98 327.98 1259.05 336.72 1251.01 345.61 1243.11 354.66 1235.91 363.7 1229.36 372.88 1223.7 382.22 1219.36 391.56 1216.27 400.95 1214.49 410.37 1214.27 419.81 1215.34 429.3 1217.64 438.84 1221.28 448.39 1225.86 458.02 1231.2 467.71 1237.35 477.43 1243.81 487.23 1250.34 497.11 1257 507.04 1263.26 517.07 1268.9 527.2 1274 537.38 1278.11 547.67 1281.06 558.07 1283.02 568.53 1283.62 579.1 1282.82 589.77 1280.83 600.49 1277.43 611.3 1272.67 622.17 1266.8 633.07 1259.72 644.01 1251.58 654.95 1242.63 665.86 1232.87 676.72 1222.47 687.49 1211.67 698.14 1200.52 708.61 1189.19 718.86 1177.89 728.88 1166.66 738.57 1155.64 747.86 1144.99 756.8 1134.72 765.25 1124.92 773.14 1115.71 780.55 1107.05 787.32 1098.95 793.38 1091.54 798.9 1084.68 803.67 1078.37 807.67 1070.09 812.49 1056.39 817.83 1050.62 818.65 1040.72 818.24 1025.92 818.37 1020.36 820.24 1016.51 822.6 1012.32 825.75 1007.78 829.8 1003.11 834.97 998.06 841.13 992.63 848.28 987.03 856.52 981.05 865.65 974.7 875.58 968.18 886.26 961.31 897.43 954.09 908.89 946.73 920.5 939.05 931.95 931.08 942.95 922.99 953.39 914.64 962.89 906.05 971.2 897.37 978.28 888.48 983.8 879.41 987.59 870.28 989.78 860.98 990.13 851.55 988.64 842.08 985.66 832.49 981.06 822.8 975.02 813.09 968.09 803.28 960.25 793.41 951.82 783.52 943.44 773.57 935.15 763.55 927.32 753.54 920.54 743.47 914.83 733.35 910.44 723.24 907.81 713.19 906.81 703.22 907.45 693.24 909.88 683.33 913.74 673.5 918.83 663.66 925.17 653.89 932.21 644.19 939.62 634.48 947.39 624.82 954.87 615.24 961.76 605.64 968.06 596.1 973.2 586.62 976.98 577.13 979.49 567.69 980.33 558.32 979.44 548.93 977.04 539.61 972.91 530.36 967.17 521.1 960.11 511.91 951.7 502.8 942.15 493.69 931.8 484.68 920.74 475.76 909.21 466.86 897.53 458.07 885.81 449.4 874.28 440.78 863.2 432.28 852.63 423.94 842.72 415.65 833.65 407.53 825.41 399.59 818.04 391.72 811.67 384.04 806.16 376.55 801.47 369.15 797.72 361.95 794.64 354.97 792.14 348.07 790.34 341.37 788.9 334.88 787.7 328.46 786.88 322.23 786.08 316.2 785.16 310.2 784.32 304.37 783.19 298.7 781.67 293.04 779.97 287.51 777.76 282.1 774.99 276.65 771.89 271.31 768.16 266.06 763.81 260.74 759.05 255.51 753.66 250.35 747.66 245.12 741.26 239.97 734.3 234.92 726.82 229.8 718.99 224.8 710.71 219.94 702.03 215.05 693.08 210.35 683.8 205.86 674.25 201.4 664.51 197.2 654.56 193.28 644.45 189.47 634.23 185.98 623.9 182.83 613.51 179.83 603.06 177.19 592.58 174.93 582.1 172.81 571.6 171.05 561.13 169.64 550.7 168.32 540.28 167.31 529.91 166.57 519.61 165.84 509.33 165.32 499.12 164.96 489 164.52 478.89 164.17 468.86 163.89 458.91 163.44 448.98 163 439.13 162.58 429.36 161.94 419.6 161.3 409.91 160.69 400.3 159.89 390.69 159.16 381.26 158.55 372.02 157.84 362.77 157.33 353.69 157.04 344.79 156.78 335.86 156.82 327.11 157.2 318.51 157.71 309.88 158.6 301.41 159.9 293.09 161.37 284.72 163.25 276.5 165.54 268.4 168 260.26 170.85 252.23 174.04 244.32 177.36 236.34 180.97 228.45 184.86 220.65 188.79 212.76 192.93 204.94 197.25 197.18 201.54 189.32 205.96 181.5 210.49 173.7 214.94 165.8 219.47 157.9 224.08 150.02 228.59 142 233.17 133.99 237.82 125.97 242.39 117.83 247.06 109.69 251.83 101.54 256.56 93.29 261.42 85.04 266.43 76.82 271.44 68.53 276.62 60.28 282 52.1 287.42 43.89 293.05 35.78 298.9 27.8 304.81 19.85 310.96 12.07 317.32 4.49 323.77 -2.98 330.44 -10.23 337.32 -17.22 344.28 -24.05 351.43 -30.59 358.77 -36.82 366.16 -42.87 373.72 -48.58 381.44 -53.96 389.17 -59.16 397.04 -64.03 405.04 -68.57 413.02 -72.96 421.1 -77.06 429.29 -80.87 437.43 -84.6 445.66 -88.09 453.96 -91.36 462.2 -94.63 470.52 -97.73 478.89 -100.68 487.2 -103.71 495.57 -106.63 504.01 -109.46 512.37 -112.42 520.8 -115.32 529.29 -118.16 537.72 -121.15 546.22 -124.08 554.79 -126.94 563.3 -129.94 571.9 -132.85 580.57 -135.64 589.21 -138.53 597.93 -141.27 606.75 -143.83 615.54 -146.41 624.43 -148.77 633.44 -150.89 642.41 -152.96 651.51 -154.73 660.72 -156.2 669.93 -157.57 679.26 -158.59 688.73 -159.26 698.19 -159.8 707.8 -159.98 717.55 -159.8" stroke-dasharray="1 1" transform="rotate(22.6, 711, 400)" opacity="0.37"></path><path d="M726.79 -134.31C736.28 -133.92 745.78 -133.18 755.3 -132.1 764.82 -130.91 774.36 -129.44 783.9 -127.69 793.44 -125.92 803 -123.94 812.55 -121.76 822.1 -119.64 831.64 -117.38 841.16 -115 850.68 -112.74 860.16 -110.4 869.59 -108 879 -105.75 888.34 -103.45 897.59 -101.1 906.79 -98.92 915.88 -96.67 924.82 -94.37 933.69 -92.19 942.38 -89.92 950.86 -87.53 959.22 -85.21 967.34 -82.72 975.19 -80.06 982.87 -77.39 990.24 -74.48 997.26 -71.33 1004.07 -68.09 1010.51 -64.55 1016.53 -60.72 1022.33 -56.73 1027.69 -52.42 1032.6 -47.77 1037.28 -42.95 1041.5 -37.79 1045.28 -32.31 1048.84 -26.65 1051.99 -20.68 1054.72 -14.42 1057.33 -8.01 1059.59 -1.35 1061.56 5.54 1063.51 12.53 1065.27 19.72 1066.88 27.06 1068.65 34.44 1070.42 41.95 1072.25 49.55 1074.43 57.12 1076.82 64.76 1079.49 72.45 1082.71 80.06 1086.35 87.68 1090.47 95.32 1095.27 102.85 1100.64 110.37 1106.61 117.89 1113.32 125.27 1120.65 132.65 1128.57 140.03 1137.16 147.27 1146.27 154.52 1155.82 161.77 1165.82 168.9 1176.08 176.06 1186.48 183.25 1196.98 190.33 1207.35 197.47 1217.43 204.66 1227.19 211.77 1236.36 218.95 1244.77 226.23 1252.44 233.43 1259.08 240.73 1264.57 248.15 1269 255.51 1272.1 262.99 1273.82 270.61 1274.37 278.18 1273.52 285.89 1271.31 293.75 1268.08 301.57 1263.66 309.55 1258.2 317.67 1252.12 325.78 1245.34 334.04 1238.05 342.46 1230.75 350.87 1223.38 359.44 1216.17 368.18 1209.6 376.91 1203.61 385.81 1198.39 394.88 1194.34 403.96 1191.37 413.1 1189.54 422.32 1189.08 431.55 1189.76 440.85 1191.51 450.22 1194.48 459.62 1198.31 469.09 1202.85 478.64 1208.19 488.21 1213.87 497.87 1219.71 507.6 1225.78 517.36 1231.61 527.2 1237 537.12 1242.05 547.05 1246.33 557.05 1249.7 567.11 1252.29 577.17 1253.75 587.28 1254.02 597.4 1253.29 607.5 1251.3 617.6 1248.07 627.65 1243.84 637.64 1238.46 647.55 1232.01 657.33 1224.74 666.99 1216.58 676.47 1207.68 685.72 1198.25 694.76 1188.3 703.51 1177.98 711.91 1167.47 720.01 1156.82 727.7 1146.15 734.91 1135.61 741.75 1125.23 748.06 1115.1 753.79 1105.34 759.11 1095.95 763.81 1086.97 767.88 1078.5 771.54 1070.48 774.59 1062.92 777.02 1055.91 779.12 1049.34 780.68 1043.17 781.75 1034.86 782.92 1020.39 783.99 1013.95 784.45 1008.06 785.63 996.61 790.74 990.79 795.27 986.94 799.41 982.89 804.34 978.63 810.1 974.35 816.83 969.81 824.37 964.99 832.71 960.11 841.85 954.92 851.62 949.42 861.88 943.83 872.59 937.93 883.47 931.72 894.35 925.4 905.11 918.79 915.46 911.89 925.17 904.9 934.17 897.64 942.13 890.11 948.87 882.51 954.4 874.67 958.44 866.61 960.88 858.49 961.9 850.16 961.29 841.65 959.08 833.1 955.62 824.38 950.8 815.5 944.79 806.6 938.09 797.56 930.68 788.39 922.83 779.21 915.11 769.91 907.54 760.51 900.39 751.09 894.23 741.58 889.01 731.98 884.96 722.37 882.47 712.79 881.41 703.24 881.78 693.69 883.77 684.17 887.03 674.69 891.4 665.22 896.94 655.78 903.17 646.38 909.83 636.99 916.91 627.63 923.87 618.33 930.44 609.02 936.63 599.77 941.93 590.56 946.13 581.36 949.34 572.22 951.14 563.13 951.46 554.05 950.47 545.04 947.93 536.1 943.89 527.18 938.6 518.34 931.97 509.59 924.15 500.87 915.43 492.25 905.83 483.73 895.56 475.26 884.88 466.92 873.91 458.7 862.81 450.54 851.84 442.53 841.09 434.68 830.68 426.89 820.81 419.28 811.52 411.84 802.86 404.48 795 397.3 787.85 390.31 781.43 383.41 775.85 376.7 770.95 370.18 766.68 363.73 763.15 357.48 760.11 351.41 757.49 345.39 755.39 339.55 753.53 333.87 751.81 325.47 749.66 309.38 744.93 301.63 741.94 296.47 739.72 291.4 737.07 286.43 733.98 281.4 730.65 276.46 726.82 271.61 722.49 266.7 717.87 261.88 712.75 257.18 707.13 252.42 701.22 247.8 694.84 243.32 688.04 238.83 680.97 234.51 673.51 230.4 665.71 226.32 657.69 222.48 649.38 218.9 640.81 215.39 632.08 212.17 623.15 209.25 614.04 206.43 604.82 203.93 595.48 201.74 586.04 199.66 576.53 197.88 566.96 196.39 557.34 194.97 547.7 193.81 538.03 192.89 528.37 191.97 518.69 191.24 509.03 190.68 499.39 190.04 489.76 189.52 480.16 189.1 470.6 188.54 461.05 188.05 451.54 187.61 442.09 187.02 432.64 186.47 423.24 186 413.9 185.39 404.55 184.88 395.37 184.5 386.34 184.06 377.3 183.8 368.41 183.75 359.67 183.72 350.91 183.96 342.28 184.5 333.79 185.11 325.27 186.06 316.88 187.35 308.59 188.77 300.27 190.53 292.05 192.64 283.92 194.88 275.74 197.45 267.64 200.33 259.62 203.3 251.53 206.54 243.49 210.04 235.51 213.58 227.45 217.32 219.42 221.25 211.43 225.16 203.34 229.21 195.27 233.4 187.22 237.53 179.07 241.76 170.92 246.09 162.79 250.35 154.56 254.7 146.33 259.14 138.12 263.51 129.83 267.99 121.56 272.57 113.32 277.12 105.02 281.79 96.78 286.61 88.61 291.42 80.43 296.4 72.34 301.54 64.37 306.72 56.44 312.1 48.66 317.66 41.05 323.29 33.55 329.13 26.25 335.18 19.19 341.3 12.27 347.63 5.62 354.16 -0.73 360.77 -6.92 367.57 -12.8 374.57 -18.36 381.62 -23.74 388.85 -28.8 396.25 -33.53 403.68 -38.1 411.26 -42.37 418.98 -46.35 426.71 -50.21 434.57 -53.81 442.53 -57.16 450.49 -60.48 458.54 -63.6 466.67 -66.54 474.78 -69.52 482.97 -72.37 491.23 -75.11 499.45 -77.96 507.74 -80.74 516.09 -83.46 524.39 -86.34 532.76 -89.19 541.18 -91.99 549.56 -94.97 558.01 -97.9 566.51 -100.79 574.97 -103.82 583.5 -106.78 592.1 -109.64 600.67 -112.59 609.31 -115.39 618.03 -118.04 626.72 -120.69 635.5 -123.12 644.37 -125.31 653.22 -127.44 662.17 -129.27 671.22 -130.79 680.26 -132.18 689.4 -133.22 698.66 -133.89 707.91 -134.41 717.28 -134.55 726.78 -134.31" stroke-dasharray="5 7" transform="rotate(27.119999999999997, 711, 400)" opacity="0.31"></path><path d="M732.42 -108.83C741.55 -108.38 750.66 -107.56 759.74 -106.41 768.81 -105.14 777.86 -103.58 786.87 -101.75 795.87 -99.89 804.83 -97.81 813.73 -95.55 822.63 -93.34 831.45 -91 840.2 -88.55 848.93 -86.22 857.56 -83.83 866.08 -81.39 874.56 -79.11 882.91 -76.8 891.11 -74.47 899.25 -72.31 907.21 -70.12 914.97 -67.9 922.64 -65.82 930.09 -63.69 937.3 -61.47 944.38 -59.36 951.18 -57.12 957.69 -54.74 964.06 -52.39 970.1 -49.84 975.81 -47.09 981.35 -44.29 986.55 -41.23 991.37 -37.9 998.19 -32.58 1009.82 -20.17 1014.69 -13.05 1017.74 -8.01 1020.52 -2.66 1023.04 2.98 1025.58 8.8 1027.93 14.9 1030.16 21.27 1032.51 27.77 1034.83 34.5 1037.17 41.44 1039.78 48.47 1042.53 55.67 1045.46 63.01 1048.81 70.4 1052.46 77.89 1056.45 85.48 1060.99 93.05 1065.96 100.68 1071.39 108.36 1077.43 115.99 1083.96 123.64 1091 131.32 1098.62 138.9 1106.71 146.5 1115.23 154.09 1124.21 161.59 1133.51 169.09 1143.05 176.59 1152.83 183.99 1162.65 191.39 1172.41 198.81 1182.09 206.13 1191.48 213.47 1200.43 220.85 1208.95 228.13 1216.79 235.46 1223.83 242.84 1230.11 250.15 1235.39 257.52 1239.57 264.97 1242.78 272.36 1244.79 279.83 1245.56 287.4 1245.32 294.92 1243.88 302.55 1241.27 310.29 1237.82 317.99 1233.39 325.82 1228.09 333.78 1222.32 341.72 1215.99 349.79 1209.26 358 1202.58 366.2 1195.86 374.55 1189.3 383.04 1183.34 391.54 1177.88 400.19 1173.08 409 1169.31 417.81 1166.47 426.68 1164.61 435.62 1163.95 444.56 1164.28 453.56 1165.55 462.61 1167.91 471.68 1171.04 480.8 1174.83 489.98 1179.38 499.16 1184.31 508.39 1189.44 517.65 1194.88 526.91 1200.2 536.21 1205.23 545.51 1210.09 554.8 1214.38 564.09 1217.95 573.36 1220.96 582.58 1223.05 591.76 1224.15 600.87 1224.44 609.9 1223.64 618.82 1221.76 627.6 1218.99 636.27 1215.17 644.74 1210.33 653 1204.69 661.08 1198.17 668.89 1190.84 676.38 1182.93 683.65 1174.39 690.55 1165.33 697.05 1155.96 703.27 1146.26 709.05 1136.35 714.36 1126.38 719.36 1116.37 723.87 1106.4 727.86 1096.61 731.56 1086.99 734.76 1077.61 737.47 1068.56 739.93 1059.82 741.96 1051.42 743.58 1043.43 745.08 1035.81 746.28 1028.53 747.23 1021.7 748.24 1015.19 749.14 1009 750.02 1000.43 751.85 984.92 757.35 977.77 761.53 973.28 765.19 968.83 769.46 964.38 774.37 960.08 780.1 955.72 786.51 951.26 793.62 946.88 801.49 942.36 809.97 937.67 819 933 828.57 928.12 838.49 923.03 848.63 917.92 858.93 912.57 869.15 906.97 879.13 901.33 888.78 895.44 897.85 889.3 906.15 883.1 913.65 876.66 920.08 869.97 925.29 863.23 929.37 856.25 932.07 849.05 933.32 841.8 933.34 834.34 931.93 826.68 929.16 818.97 925.37 811.08 920.46 803 914.57 794.9 908.18 786.63 901.24 778.2 893.98 769.76 886.91 761.17 880.02 752.43 873.54 743.69 867.95 734.82 863.21 725.82 859.48 716.82 857.13 707.81 856.02 698.8 856.17 689.8 857.74 680.79 860.45 671.8 864.15 662.82 868.94 653.85 874.4 644.9 880.29 635.97 886.68 627.06 893.06 618.19 899.2 609.33 905.16 600.51 910.45 591.74 914.89 582.98 918.57 574.28 921.11 565.65 922.4 557.03 922.6 548.49 921.45 540.02 918.94 531.6 915.3 523.25 910.39 515.01 904.3 506.81 897.28 498.72 889.29 490.74 880.5 482.82 871.15 475.03 861.29 467.38 851.07 459.8 840.72 452.37 830.3 445.09 819.96 437.88 809.87 430.84 800.09 423.97 790.71 417.18 781.86 410.56 773.54 404.12 765.77 397.75 758.69 391.56 752.21 385.54 746.3 379.58 741.07 373.79 736.38 368.16 732.15 362.58 728.51 357.14 725.24 351.86 722.26 344.01 718.5 328.93 711.88 321.65 708.61 314.42 705.3 300.34 697.37 293.49 692.53 288.91 689.05 284.42 685.17 280.05 680.9 275.64 676.44 271.36 671.57 267.22 666.31 263.08 660.85 259.1 655.01 255.31 648.81 251.54 642.43 247.98 635.72 244.66 628.7 241.38 621.53 238.36 614.08 235.6 606.4 232.9 598.59 230.48 590.58 228.32 582.39 226.24 574.12 224.41 565.69 222.84 557.14 221.32 548.54 220.02 539.83 218.94 531.05 217.85 522.24 216.95 513.36 216.22 504.44 215.43 495.51 214.78 486.54 214.24 477.56 213.61 468.57 213.08 459.56 212.65 450.55 212.11 441.55 211.66 432.54 211.31 423.53 210.87 414.52 210.56 405.62 210.39 396.82 210.18 388.02 210.15 379.32 210.33 370.73 210.51 362.11 210.94 353.59 211.62 345.16 212.36 336.71 213.38 328.33 214.69 320.03 216.09 311.7 217.78 303.43 219.77 295.22 221.84 286.96 224.2 278.76 226.82 270.59 229.51 262.37 232.45 254.19 235.61 246.03 238.8 237.81 242.18 229.61 245.75 221.43 249.3 213.19 253 204.97 256.83 196.75 260.63 188.48 264.54 180.23 268.56 172 272.52 163.73 276.59 155.48 280.76 147.28 284.87 139.06 289.1 130.89 293.43 122.79 297.73 114.71 302.16 106.72 306.72 98.85 311.28 91.02 315.99 83.34 320.86 75.82 325.75 68.4 330.82 61.17 336.07 54.16 341.37 47.29 346.86 40.65 352.55 34.28 358.3 28.08 364.25 22.15 370.4 16.53 376.62 11.07 383.03 5.92 389.62 1.07 396.29 -3.6 403.13 -7.98 410.13 -12.08 417.2 -16.04 424.42 -19.74 431.78 -23.19 439.19 -26.57 446.72 -29.73 454.38 -32.7 462.05 -35.67 469.84 -38.5 477.72 -41.19 485.61 -43.96 493.58 -46.64 501.64 -49.26 509.68 -52.01 517.8 -54.72 525.98 -57.41 534.15 -60.27 542.38 -63.12 550.67 -65.95 558.93 -68.95 567.26 -71.94 575.64 -74.88 584 -77.96 592.41 -80.98 600.89 -83.91 609.34 -86.91 617.85 -89.78 626.43 -92.48 634.98 -95.18 643.61 -97.67 652.3 -99.9 660.98 -102.05 669.73 -103.91 678.56 -105.44 687.37 -106.83 696.27 -107.87 705.25 -108.53 714.22 -109.01 723.27 -109.12 732.4 -108.83" stroke-dasharray="1 4" transform="rotate(31.640000000000004, 711, 400)" opacity="0.20"></path><path d="M733.17 -83.35C741.84 -82.84 750.44 -81.98 758.97 -80.77 767.49 -79.44 775.94 -77.81 784.3 -75.92 792.66 -73.99 800.92 -71.84 809.08 -69.52 817.22 -67.23 825.24 -64.82 833.14 -62.31 841.01 -59.91 848.74 -57.45 856.31 -54.95 863.83 -52.61 871.18 -50.26 878.35 -47.9 885.45 -45.72 892.34 -43.54 899.01 -41.34 905.6 -39.31 911.95 -37.24 918.04 -35.13 926.9 -32.12 943.08 -25.69 950.37 -22.15 957.22 -18.41 969.36 -9.69 974.7 -4.62 979.75 0.92 988.88 13.75 993.13 21.05 996.04 26.18 998.91 31.6 1001.78 37.3 1004.88 43.16 1008.06 49.27 1011.36 55.62 1015 62.1 1018.85 68.79 1022.94 75.66 1027.47 82.63 1032.31 89.75 1037.51 97.01 1043.19 104.31 1049.26 111.72 1055.72 119.23 1062.68 126.73 1070.02 134.31 1077.74 141.94 1085.88 149.53 1094.33 157.17 1103.03 164.83 1112.01 172.44 1121.13 180.07 1130.29 187.72 1139.51 195.29 1148.61 202.88 1157.5 210.48 1166.16 218 1174.4 225.54 1182.12 233.1 1189.35 240.59 1195.85 248.1 1201.55 255.63 1206.52 263.11 1210.53 270.62 1213.53 278.17 1215.66 285.68 1216.72 293.23 1216.7 300.85 1215.83 308.42 1213.94 316.07 1211.05 323.79 1207.5 331.48 1203.14 339.26 1198.06 347.12 1192.65 354.97 1186.79 362.91 1180.61 370.96 1174.53 379 1168.45 387.15 1162.51 395.41 1157.12 403.67 1152.16 412.05 1147.77 420.54 1144.27 429.04 1141.57 437.56 1139.71 446.09 1138.88 454.63 1138.91 463.18 1139.75 471.75 1141.55 480.31 1144.05 488.88 1147.15 497.45 1150.96 506.01 1155.14 514.55 1159.57 523.07 1164.35 531.56 1169.1 540.02 1173.7 548.41 1178.25 556.77 1182.39 565.04 1186 573.21 1189.22 581.32 1191.72 589.3 1193.42 597.12 1194.49 604.84 1194.65 612.38 1193.88 619.7 1192.37 626.89 1189.91 633.82 1186.54 640.48 1182.43 646.97 1177.47 653.14 1171.72 658.97 1165.36 664.61 1158.32 669.88 1150.7 674.76 1142.67 679.44 1134.19 683.71 1125.36 687.58 1116.33 691.25 1107.09 694.53 1097.73 697.41 1088.37 700.15 1079.01 702.54 1069.72 704.6 1060.59 706.61 1051.62 708.36 1042.84 709.91 1034.33 711.54 1026.07 713.06 1018.06 714.54 1010.39 716.26 1002.98 718.06 995.84 720.01 989.04 722.38 982.49 725.03 976.17 728.03 970.16 731.59 964.34 735.6 958.68 740.11 953.29 745.29 948 751.01 942.8 757.3 937.8 764.25 932.83 771.74 927.87 779.74 923.03 788.28 918.16 797.21 913.22 806.44 908.37 815.97 903.4 825.6 898.32 835.21 893.27 844.75 888.07 854.01 882.7 862.84 877.35 871.21 871.81 878.88 866.08 885.71 860.34 891.72 854.4 896.68 848.26 900.48 842.1 903.24 835.73 904.75 829.17 904.99 822.58 904.17 815.8 902.15 808.82 898.97 801.81 894.99 794.62 890.08 787.25 884.4 779.87 878.37 772.3 871.93 764.57 865.27 756.83 858.84 748.93 852.6 740.88 846.75 732.83 841.72 724.62 837.41 716.29 833.99 707.95 831.79 699.58 830.65 691.2 830.6 682.82 831.81 674.43 834 666.03 837.09 657.65 841.18 649.27 845.89 640.9 851.04 632.55 856.72 624.22 862.48 615.92 868.13 607.65 873.74 599.41 878.88 591.21 883.38 583.05 887.34 574.94 890.39 566.89 892.42 558.88 893.57 550.94 893.58 543.09 892.4 535.28 890.24 527.56 886.91 519.95 882.47 512.38 877.13 504.93 870.81 497.6 863.62 490.33 855.79 483.19 847.3 476.19 838.29 469.25 828.96 462.46 819.34 455.82 809.57 449.25 799.81 442.83 790.1 436.57 780.55 430.37 771.3 424.34 762.34 418.46 753.76 412.65 745.65 406.98 737.99 401.48 730.79 396.01 724.15 390.69 717.98 385.52 712.26 380.37 707.09 375.34 702.32 370.45 697.91 363.17 692.12 349.11 682.24 342.32 677.82 335.55 673.75 322.38 665.41 315.99 660.9 309.62 656.18 297.36 645.31 291.53 639.08 287.66 634.71 283.96 630.03 280.42 625.03 276.9 619.92 273.56 614.49 270.42 608.76 267.32 602.92 264.43 596.8 261.77 590.4 259.16 583.91 256.77 577.18 254.62 570.22 252.51 563.17 250.63 555.93 248.98 548.5 247.35 541.01 245.93 533.36 244.72 525.56 243.5 517.72 242.46 509.76 241.59 501.68 240.69 493.58 239.94 485.38 239.32 477.09 238.65 468.8 238.11 460.42 237.69 451.97 237.21 443.53 236.85 435.01 236.62 426.44 236.33 417.87 236.2 409.34 236.22 400.86 236.21 392.38 236.39 383.95 236.76 375.56 237.14 367.16 237.74 358.81 238.56 350.5 239.42 342.17 240.53 333.89 241.88 325.64 243.29 317.37 244.95 309.13 246.85 300.91 248.81 292.67 251.02 284.46 253.45 276.26 255.92 268.04 258.6 259.84 261.49 251.65 264.39 243.44 267.46 235.24 270.7 227.07 273.93 218.87 277.3 210.7 280.81 202.56 284.27 194.4 287.86 186.29 291.56 178.22 295.21 170.17 298.98 162.17 302.84 154.26 306.66 146.37 310.6 138.59 314.64 130.91 318.65 123.3 322.79 115.83 327.05 108.51 331.31 101.29 335.7 94.25 340.24 87.41 344.81 80.7 349.53 74.21 354.41 67.96 359.34 61.86 364.45 56.02 369.73 50.45 375.07 45.03 380.6 39.9 386.3 35.05 392.08 30.36 398.04 25.94 404.18 21.8 410.39 17.79 416.77 14.03 423.32 10.53 429.94 7.11 436.71 3.9 443.63 0.9 450.61 -2.07 457.73 -4.9 464.97 -7.57 472.26 -10.3 479.67 -12.92 487.18 -15.46 494.72 -18.11 502.36 -20.71 510.09 -23.28 517.83 -26.01 525.66 -28.73 533.56 -31.45 541.47 -34.35 549.44 -37.24 557.47 -40.14 565.51 -43.21 573.6 -46.26 581.74 -49.27 589.88 -52.42 598.07 -55.49 606.31 -58.48 614.54 -61.52 622.83 -64.43 631.15 -67.17 639.48 -69.89 647.85 -72.39 656.26 -74.63 664.67 -76.78 673.13 -78.63 681.63 -80.16 690.13 -81.52 698.68 -82.53 707.27 -83.17 715.86 -83.61 724.49 -83.68 733.16 -83.35" stroke-dasharray="4 2" transform="rotate(36.160000000000004, 711, 400)" opacity="0.63"></path><path d="M728.87 -57.87C736.98 -57.32 744.99 -56.41 752.89 -55.17 760.79 -53.8 768.57 -52.14 776.24 -50.21 783.9 -48.23 791.42 -46.04 798.82 -43.67 806.19 -41.33 813.41 -38.86 820.48 -36.29 827.52 -33.82 834.4 -31.3 841.09 -28.74 847.75 -26.33 854.21 -23.91 860.48 -21.49 866.7 -19.26 872.7 -17.03 878.49 -14.8 886.98 -11.73 902.71 -5.72 909.94 -2.7 916.87 0.25 929.53 6.7 935.32 10.31 940.93 14.17 951.43 23.15 956.45 28.34 961.58 34.01 972.07 46.96 977.62 54.25 981.61 59.35 985.76 64.72 990.08 70.35 994.74 76.11 999.64 82.11 1004.8 88.33 1010.34 94.66 1016.18 101.19 1022.32 107.9 1028.85 114.69 1035.69 121.63 1042.83 128.71 1050.33 135.83 1058.1 143.07 1066.09 150.4 1074.35 157.76 1082.76 165.19 1091.26 172.67 1099.88 180.16 1108.47 187.69 1116.97 195.26 1125.37 202.81 1133.53 210.39 1141.36 217.99 1148.87 225.56 1155.9 233.14 1162.35 240.75 1168.28 248.31 1173.5 255.89 1177.93 263.49 1181.68 271.05 1184.55 278.63 1186.51 286.23 1187.73 293.8 1188 301.39 1187.35 309.02 1185.99 316.62 1183.77 324.25 1180.73 331.93 1177.17 339.58 1172.95 347.28 1168.15 355.03 1163.12 362.77 1157.74 370.56 1152.12 378.41 1146.62 386.26 1141.14 394.16 1135.8 402.13 1130.94 410.09 1126.46 418.12 1122.46 426.22 1119.23 434.31 1116.67 442.37 1114.82 450.39 1113.87 458.41 1113.63 466.39 1114.1 474.32 1115.41 482.24 1117.34 490.11 1119.79 497.9 1122.91 505.68 1126.39 513.39 1130.12 520.99 1134.24 528.57 1138.4 536.04 1142.49 543.38 1146.64 550.67 1150.51 557.82 1154 564.81 1157.26 571.72 1159.96 578.45 1162.05 584.97 1163.66 591.4 1164.54 597.6 1164.65 603.55 1163.51 612.17 1156.24 627.82 1150.2 634.78 1145.35 639.19 1139.82 643.28 1133.68 647.06 1127.09 650.71 1119.98 654.06 1112.44 657.11 1104.61 660.09 1096.45 662.8 1088.04 665.27 1079.5 667.72 1070.82 669.99 1062.06 672.1 1053.31 674.3 1044.57 676.42 1035.89 678.51 1027.34 680.8 1018.9 683.16 1010.62 685.62 1002.53 688.42 994.63 691.42 986.92 694.68 979.46 698.38 972.19 702.43 965.12 706.86 958.31 711.81 951.67 717.19 945.21 723.02 938.98 729.39 932.89 736.21 926.93 743.46 921.16 751.18 915.49 759.27 909.88 767.67 904.43 776.39 899.02 785.29 893.61 794.28 888.32 803.33 883 812.29 877.65 821.04 872.36 829.55 867.01 837.63 861.58 845.16 856.19 852.15 850.69 858.39 845.07 863.77 839.48 868.35 833.75 871.94 827.88 874.46 822.01 876.06 816 876.57 809.84 875.96 803.66 874.5 797.34 872.01 790.85 868.58 784.36 864.52 777.7 859.72 770.9 854.32 764.08 848.69 757.11 842.77 749.99 836.7 742.87 830.9 735.6 825.29 728.19 820.04 720.77 815.52 713.23 811.64 705.55 808.51 697.88 806.44 690.17 805.3 682.45 805.08 674.73 805.95 667 807.69 659.27 810.22 651.55 813.65 643.84 817.65 636.14 822.09 628.45 827.06 620.79 832.18 613.17 837.28 605.56 842.46 598 847.33 590.49 851.73 583.01 855.79 575.59 859.13 568.23 861.68 560.92 863.55 553.68 864.47 546.52 864.4 539.42 863.5 532.4 861.56 525.49 858.63 518.64 854.87 511.89 850.17 505.26 844.6 498.69 838.37 492.24 831.4 485.92 823.82 479.66 815.79 473.53 807.33 467.55 798.53 461.61 789.56 455.82 780.43 450.18 771.25 444.57 762.15 439.11 753.14 433.8 744.29 428.52 735.71 423.37 727.41 418.36 719.4 413.37 711.8 408.5 704.54 403.76 697.65 399.02 691.21 394.39 685.12 389.87 679.38 385.33 674.07 380.89 669.07 376.55 664.34 370.03 657.91 357.35 646.37 351.18 641.04 345.01 636.02 333.04 625.95 327.26 620.72 321.54 615.4 310.67 603.77 305.58 597.38 300.65 590.69 291.68 575.99 287.68 567.97 285.11 562.48 282.74 556.75 280.57 550.79 278.44 544.78 276.51 538.54 274.78 532.1 273.07 525.61 271.56 518.93 270.23 512.06 268.92 505.16 267.78 498.08 266.81 490.85 265.84 483.59 265.02 476.18 264.36 468.64 263.67 461.08 263.13 453.4 262.74 445.59 262.32 437.78 262.05 429.85 261.93 421.81 261.78 413.77 261.8 405.72 261.99 397.66 262.16 389.61 262.52 381.55 263.06 373.5 263.61 365.44 264.36 357.39 265.32 349.34 266.3 341.29 267.49 333.25 268.89 325.21 270.33 317.17 271.98 309.13 273.84 301.11 275.73 293.08 277.83 285.06 280.12 277.06 282.43 269.05 284.92 261.06 287.59 253.1 290.25 245.14 293.07 237.2 296.04 229.3 298.99 221.42 302.07 213.58 305.28 205.8 308.45 198.04 311.74 190.36 315.13 182.75 318.48 175.2 321.94 167.74 325.5 160.39 329.02 153.12 332.65 145.97 336.38 138.98 340.08 132.08 343.9 125.35 347.83 118.8 351.76 112.37 355.81 106.15 360 100.14 364.2 94.27 368.54 88.63 373.03 83.24 377.55 77.99 382.24 72.99 387.08 68.25 391.97 63.64 397.04 59.29 402.26 55.19 407.56 51.21 413.02 47.47 418.65 43.97 424.34 40.54 430.21 37.32 436.23 34.31 442.32 31.32 448.57 28.5 454.96 25.83 461.42 23.12 468.02 20.53 474.76 18.03 481.54 15.45 488.46 12.92 495.48 10.44 502.55 7.82 509.73 5.21 517 2.61 524.31 -0.15 531.7 -2.94 539.18 -5.73 546.68 -8.7 554.25 -11.69 561.88 -14.67 569.54 -17.81 577.25 -20.93 585.02 -24.02 592.79 -27.21 600.62 -30.34 608.49 -33.36 616.36 -36.43 624.28 -39.35 632.23 -42.09 640.18 -44.8 648.17 -47.28 656.18 -49.51 664.2 -51.62 672.24 -53.44 680.3 -54.93 688.37 -56.25 696.46 -57.21 704.55 -57.81 712.65 -58.21 720.75 -58.23 728.86 -57.87" stroke-dasharray="1 1" transform="rotate(40.68, 711, 400)" opacity="0.83"></path><path d="M720.5 -32.39C727.99 -31.8 735.36 -30.87 742.6 -29.62 749.84 -28.22 756.96 -26.54 763.94 -24.61 770.9 -22.61 777.73 -20.4 784.41 -18.01 791.07 -15.63 797.58 -13.12 803.92 -10.52 810.25 -7.99 816.4 -5.41 822.38 -2.79 828.34 -0.31 834.11 2.18 839.7 4.67 847.95 8.14 863.47 14.74 870.74 17.89 877.8 20.8 891.05 26.58 897.27 29.54 903.4 32.49 915.15 39 920.89 42.67 926.73 46.6 938.63 55.67 944.82 60.87 949.18 64.54 953.65 68.47 958.26 72.64 963.12 76.96 968.16 81.53 973.4 86.35 978.93 91.31 984.67 96.51 990.65 101.93 996.93 107.49 1003.45 113.26 1010.19 119.22 1017.22 125.29 1024.46 131.55 1031.89 137.97 1039.53 144.47 1047.32 151.12 1055.2 157.9 1063.21 164.74 1071.22 171.69 1079.2 178.73 1087.16 185.81 1094.97 192.97 1102.57 200.2 1109.98 207.45 1117.05 214.75 1123.72 222.1 1130.03 229.45 1135.82 236.84 1141.02 244.25 1145.71 251.67 1149.72 259.1 1152.99 266.55 1155.66 274 1157.54 281.46 1158.62 288.93 1159.07 296.39 1158.71 303.87 1157.57 311.35 1155.86 318.83 1153.44 326.32 1150.35 333.82 1146.87 341.32 1142.85 348.83 1138.38 356.35 1133.75 363.87 1128.85 371.41 1123.78 378.96 1118.85 386.51 1113.94 394.07 1109.16 401.65 1104.81 409.22 1100.78 416.81 1097.15 424.41 1094.18 432 1091.77 439.51 1089.95 446.93 1088.9 454.35 1088.45 461.67 1088.6 468.89 1089.48 476.1 1090.88 483.2 1092.76 490.17 1095.23 497.13 1098.05 503.96 1101.12 510.64 1104.58 517.3 1108.12 523.79 1111.68 530.13 1115.35 536.41 1118.86 542.52 1122.12 548.43 1126.62 557.12 1132.88 573.3 1134.31 580.76 1134.41 587.87 1130.41 600.75 1126.31 606.53 1122.84 610.24 1118.73 613.72 1114.03 616.98 1108.88 620.22 1103.2 623.26 1097.04 626.13 1090.55 629.03 1083.66 631.79 1076.43 634.45 1068.99 637.2 1061.3 639.91 1053.42 642.6 1045.43 645.47 1037.34 648.39 1029.18 651.41 1021.03 654.69 1012.88 658.13 1004.75 661.77 996.72 665.77 988.77 670.02 980.91 674.56 973.2 679.52 965.61 684.8 958.16 690.42 950.88 696.48 943.74 702.89 936.74 709.64 929.92 716.79 923.23 724.24 916.67 731.97 910.27 739.98 903.98 748.19 897.79 756.51 891.75 764.96 885.77 773.4 879.85 781.74 874.06 789.99 868.29 797.98 862.55 805.62 856.89 812.92 851.23 819.69 845.55 825.85 839.93 831.44 834.28 836.27 828.57 840.28 822.9 843.55 817.17 845.9 811.36 847.31 805.57 847.93 799.69 847.61 793.72 846.34 787.75 844.39 781.69 841.6 775.51 838.04 769.34 834.02 763.06 829.42 756.66 824.35 750.27 819.16 743.76 813.76 737.13 808.28 730.5 803.08 723.76 798.08 716.92 793.39 710.07 789.36 703.11 785.87 696.06 783.03 689 781.1 681.93 779.95 674.86 779.59 667.79 780.18 660.72 781.51 653.66 783.53 646.61 786.35 639.58 789.69 632.58 793.45 625.59 797.73 618.63 802.19 611.71 806.71 604.82 811.39 597.97 815.89 591.18 820.07 584.42 824.06 577.72 827.52 571.1 830.36 564.51 832.72 558 834.32 551.57 835.1 545.19 835.22 538.9 834.47 532.71 832.83 526.56 830.49 520.52 827.29 514.6 823.27 508.71 818.6 502.94 813.2 497.3 807.15 491.69 800.59 486.2 793.5 480.84 785.97 475.52 778.13 470.32 769.99 465.24 761.62 460.19 753.16 455.26 744.61 450.45 736.04 445.66 727.56 440.98 719.16 436.42 710.91 431.85 702.87 427.38 695.05 423.03 687.46 418.65 680.18 414.37 673.16 410.18 666.42 405.96 660.02 401.82 653.89 397.76 648.02 393.66 642.48 389.63 637.17 385.68 632.08 381.68 627.27 377.75 622.63 373.9 618.13 368.07 611.77 356.75 599.63 351.28 593.68 345.84 587.87 335.49 575.92 330.62 569.69 325.88 563.34 317.17 549.8 313.25 542.56 309.52 535.1 303.02 519.16 300.25 510.68 298.49 504.94 296.91 499 295.51 492.88 294.13 486.74 292.93 480.41 291.9 473.91 290.88 467.4 290.03 460.72 289.35 453.87 288.67 447.02 288.15 440.01 287.8 432.86 287.45 425.69 287.26 418.39 287.24 410.95 287.21 403.5 287.37 396.02 287.69 388.49 288.02 380.97 288.53 373.42 289.22 365.84 289.92 358.27 290.8 350.68 291.87 343.07 292.96 335.47 294.24 327.85 295.7 320.24 297.18 312.63 298.84 305.02 300.68 297.42 302.54 289.83 304.57 282.26 306.76 274.7 308.95 267.17 311.31 259.66 313.81 252.19 316.29 244.75 318.91 237.35 321.67 230.01 324.39 222.71 327.23 215.48 330.19 208.34 333.1 201.25 336.13 194.25 339.25 187.37 342.33 180.55 345.5 173.86 348.77 167.31 352 160.86 355.33 154.55 358.76 148.42 362.15 142.39 365.65 136.54 369.26 130.89 372.85 125.36 376.56 120.03 380.38 114.92 384.21 109.93 388.16 105.17 392.25 100.63 396.35 96.21 400.6 92.01 404.99 88.04 409.42 84.17 414 80.52 418.73 77.08 423.5 73.71 428.44 70.53 433.53 67.53 438.67 64.56 443.97 61.75 449.42 59.09 454.94 56.4 460.6 53.82 466.4 51.35 472.27 48.8 478.28 46.32 484.41 43.88 490.61 41.33 496.93 38.8 503.37 36.29 509.86 33.62 516.45 30.94 523.15 28.25 529.89 25.38 536.73 22.49 543.65 19.59 550.61 16.52 557.64 13.44 564.74 10.37 571.87 7.16 579.07 3.97 586.31 0.83 593.58 -2.39 600.9 -5.53 608.26 -8.57 615.63 -11.62 623.04 -14.52 630.48 -17.24 637.93 -19.9 645.41 -22.33 652.9 -24.5 660.4 -26.56 667.91 -28.31 675.42 -29.74 682.95 -31 690.47 -31.91 697.99 -32.45 705.5 -32.8 713.01 -32.78 720.49 -32.39" stroke-dasharray="5 0" transform="rotate(45.2, 711, 400)" opacity="0.11"></path><path d="M709.97 -6.9C716.82 -6.3 723.55 -5.36 730.16 -4.1 736.76 -2.71 743.24 -1.04 749.6 0.88 755.94 2.88 762.15 5.08 768.22 7.46 774.29 9.85 780.21 12.36 785.98 14.99 791.75 17.54 797.36 20.17 802.83 22.84 810.94 26.67 826.41 34.13 833.78 37.71 841.01 41.01 854.85 47.27 861.49 50.28 868.08 53.09 880.96 58.75 887.31 61.69 893.78 64.65 906.92 71.21 913.68 74.88 920.76 78.81 935.71 87.77 943.66 92.85 949.23 96.42 954.95 100.21 960.85 104.23 966.97 108.37 973.26 112.73 979.72 117.31 986.4 122.01 993.23 126.93 1000.2 132.04 1007.34 137.27 1014.59 142.69 1021.92 148.29 1029.35 153.99 1036.8 159.86 1044.23 165.87 1051.66 171.97 1059 178.21 1066.2 184.57 1073.28 190.99 1080.12 197.52 1086.67 204.15 1092.98 210.82 1098.9 217.58 1104.38 224.4 1109.49 231.26 1114.08 238.17 1118.1 245.14 1121.65 252.12 1124.57 259.15 1126.82 266.2 1128.56 273.27 1129.6 280.37 1129.96 287.48 1129.79 294.6 1128.96 301.73 1127.47 308.87 1125.54 316.01 1123.03 323.16 1119.98 330.31 1116.64 337.46 1112.88 344.61 1108.76 351.75 1104.56 358.89 1100.14 366.02 1095.6 373.14 1091.21 380.26 1086.85 387.37 1082.6 394.45 1078.73 401.54 1075.12 408.6 1071.84 415.62 1069.12 422.65 1066.87 429.56 1065.1 436.34 1063.98 443.12 1063.36 449.78 1063.23 456.29 1063.74 462.8 1064.69 469.16 1066.04 475.38 1067.94 481.58 1070.14 487.62 1072.58 493.5 1075.4 499.36 1078.34 505.05 1081.33 510.56 1086.04 518.7 1094.7 533.98 1098.28 541.12 1101.18 548.01 1104.13 560.78 1104 566.68 1102.7 572.39 1096.53 583.02 1091.71 588.02 1087.91 591.36 1083.6 594.62 1078.81 597.81 1073.68 601.11 1068.13 604.38 1062.2 607.66 1056.01 611.09 1049.51 614.58 1042.74 618.14 1035.8 621.93 1028.66 625.84 1021.35 629.9 1013.97 634.25 1006.48 638.79 998.92 643.54 991.36 648.62 983.78 653.95 976.2 659.53 968.67 665.45 961.19 671.63 953.76 678.07 946.42 684.83 939.16 691.82 931.98 699.02 924.92 706.46 917.95 714.07 911.07 721.78 904.32 729.62 897.65 737.49 891.08 745.31 884.62 753.1 878.24 760.73 871.93 768.14 865.73 775.32 859.59 782.15 853.49 788.54 847.48 794.53 841.5 799.95 835.55 804.75 829.66 808.99 823.79 812.51 817.91 815.26 812.08 817.37 806.23 818.66 800.37 819.13 794.53 818.96 788.66 817.99 782.75 816.24 776.86 813.96 770.92 811 764.92 807.43 758.94 803.54 752.89 799.21 746.78 794.52 740.67 789.79 734.49 784.93 728.25 780.03 722 775.4 715.69 770.97 709.31 766.81 702.93 763.23 696.48 760.12 689.96 757.55 683.44 755.76 676.94 754.62 670.46 754.14 663.98 754.49 657.53 755.46 651.1 757.01 644.68 759.28 638.3 762.01 631.96 765.13 625.63 768.74 619.34 772.55 613.11 776.48 606.9 780.62 600.74 784.66 594.65 788.52 588.58 792.3 582.57 795.71 576.65 798.66 567.84 802.31 550.7 805.72 542.38 805.24 536.89 804.1 531.51 802.21 526.22 799.58 520.96 796.37 515.81 792.47 510.77 787.92 505.74 782.88 500.82 777.27 496.02 771.15 491.22 764.66 486.53 757.78 481.95 750.56 477.37 743.12 472.9 735.45 468.52 727.63 464.14 719.73 459.85 711.77 455.66 703.8 451.44 695.89 447.31 688.04 443.27 680.29 439.19 672.7 435.19 665.26 431.26 657.99 427.29 650.94 423.4 644.08 419.57 637.42 415.68 631.01 411.87 624.8 408.12 618.77 404.31 613 400.57 607.4 396.9 601.95 393.17 596.73 389.51 591.64 385.92 586.66 380.51 579.51 370.05 565.72 365.04 558.98 360.09 552.38 350.79 539.06 346.46 532.25 342.28 525.41 334.72 511.17 331.36 503.72 328.2 496.14 322.8 480.23 320.57 471.88 319.16 466.25 317.93 460.47 316.88 454.53 315.85 448.59 314.99 442.49 314.32 436.24 313.66 429.98 313.18 423.58 312.88 417.03 312.59 410.48 312.48 403.79 312.55 396.96 312.63 390.13 312.9 383.25 313.34 376.33 313.8 369.42 314.43 362.46 315.24 355.48 316.06 348.51 317.06 341.51 318.23 334.5 319.41 327.5 320.76 320.49 322.28 313.48 323.8 306.49 325.48 299.51 327.33 292.55 329.16 285.61 331.15 278.69 333.29 271.81 335.4 264.97 337.66 258.16 340.04 251.42 342.39 244.72 344.87 238.08 347.46 231.52 350 225.02 352.66 218.6 355.41 212.29 358.12 206.05 360.93 199.92 363.82 193.92 366.67 188 369.6 182.22 372.62 176.59 375.6 171.04 378.66 165.66 381.81 160.46 386.52 152.88 396.39 138.8 401.56 132.32 406.82 126.17 417.92 114.96 423.78 109.89 429.8 105.06 442.56 96.26 449.3 92.23 456.25 88.28 470.92 80.76 478.63 77.12 483.87 74.6 489.24 72.12 494.74 69.65 500.28 67.04 505.95 64.43 511.74 61.81 517.57 59.03 523.51 56.23 529.55 53.41 535.64 50.43 541.83 47.42 548.1 44.41 554.41 41.24 560.8 38.07 567.26 34.92 573.76 31.65 580.32 28.43 586.94 25.26 593.59 22.03 600.28 18.91 607.02 15.9 613.78 12.89 620.58 10.05 627.4 7.4 634.24 4.82 641.1 2.47 647.98 0.38 654.87 -1.57 661.77 -3.24 668.66 -4.59 675.57 -5.76 682.47 -6.6 689.36 -7.09 696.25 -7.39 703.12 -7.33 709.96 -6.9" stroke-dasharray="3 1" transform="rotate(49.72, 711, 400)" opacity="0.56"></path><path d="M699.67 18.57C705.9 19.19 712.04 20.13 718.07 21.37 724.1 22.74 730.03 24.39 735.85 26.27 741.66 28.24 747.37 30.41 752.97 32.76 758.56 35.12 764.04 37.62 769.41 40.24 777.41 44.13 792.86 52.06 800.33 56 807.71 59.74 822.05 66.93 829.04 70.35 836.02 73.51 849.81 79.55 856.67 82.47 863.63 85.24 877.75 90.87 884.97 93.81 892.43 96.79 907.95 103.33 916.05 106.97 921.65 109.47 927.36 112.15 933.18 115.01 939.17 117.93 945.28 121.04 951.51 124.34 957.89 127.72 964.37 131.3 970.95 135.08 977.65 138.95 984.43 143.02 991.25 147.27 998.15 151.63 1005.05 156.17 1011.94 160.88 1018.84 165.7 1025.66 170.68 1032.37 175.82 1039 181.05 1045.45 186.42 1051.69 191.93 1057.75 197.52 1063.52 203.24 1068.96 209.06 1074.13 214.95 1078.9 220.95 1083.23 227.03 1087.2 233.16 1090.68 239.37 1093.63 245.65 1096.16 251.97 1098.13 258.34 1099.52 264.77 1100.48 271.22 1100.85 277.71 1100.64 284.24 1100.02 290.78 1098.85 297.35 1097.14 303.93 1095.1 310.53 1092.6 317.13 1089.66 323.74 1086.53 330.35 1083.06 336.97 1079.32 343.57 1075.54 350.17 1071.61 356.77 1067.58 363.33 1063.7 369.91 1059.86 376.45 1056.11 382.97 1052.69 389.48 1049.48 395.95 1046.53 402.38 1044.06 408.81 1041.96 415.11 1040.26 421.27 1039.1 427.44 1038.34 433.47 1037.99 439.36 1038.46 448.11 1041.83 464.88 1044.51 472.88 1047.91 480.71 1055.44 495.59 1059.26 502.63 1063.01 509.51 1069.25 522.54 1071.47 528.71 1073.2 540.59 1070.01 557.71 1066.84 563.28 1062.69 568.99 1051.66 580.67 1044.9 586.74 1040 591 1034.76 595.35 1029.22 599.83 1023.47 604.52 1017.47 609.35 1011.24 614.36 1004.87 619.6 998.33 625.02 991.64 630.63 984.88 636.49 978.02 642.54 971.08 648.78 964.12 655.25 957.12 661.89 950.1 668.69 943.1 675.67 936.1 682.76 929.13 689.94 922.21 697.21 915.33 704.51 908.49 711.78 901.72 719.04 895 726.19 888.35 733.18 881.76 740.02 875.24 746.6 868.78 752.87 862.4 758.85 856.06 764.41 849.79 769.49 843.58 774.17 837.42 778.28 831.3 781.79 825.23 784.79 819.2 787.14 813.2 788.8 807.25 789.91 801.31 790.33 795.38 790.05 789.5 789.26 783.61 787.82 777.72 785.75 771.86 783.29 765.99 780.29 760.11 776.83 754.24 773.14 748.36 769.13 742.45 764.86 736.55 760.6 730.63 756.27 724.68 751.93 718.73 747.86 712.76 743.95 706.75 740.3 700.75 737.15 694.72 734.38 688.65 732.07 682.59 730.41 676.57 729.3 670.6 728.73 664.63 728.86 658.71 729.52 652.84 730.67 646.97 732.43 641.16 734.61 635.41 737.13 629.66 740.1 623.97 743.29 618.35 746.62 612.73 750.19 607.18 753.73 601.71 757.18 596.25 760.65 590.86 763.87 585.56 766.77 577.65 770.61 562.29 775.38 554.84 776.08 547.5 775.48 533.28 770.42 526.42 765.99 521.87 762.39 517.41 758.24 513.05 753.57 508.68 748.52 504.4 743.02 500.21 737.13 496 730.96 491.88 724.47 487.84 717.72 483.77 710.81 479.78 703.7 475.87 696.47 471.92 689.17 468.04 681.8 464.23 674.41 460.38 667.05 456.59 659.71 452.86 652.43 449.08 645.25 445.36 638.17 441.69 631.19 437.97 624.36 434.31 617.66 430.71 611.1 427.05 604.7 423.44 598.44 419.9 592.32 416.31 586.37 412.77 580.54 409.31 574.84 405.8 569.29 402.37 563.85 399.01 558.5 395.62 553.28 392.32 548.13 389.11 543.04 384.32 535.58 375.26 520.9 371.03 513.59 366.94 506.36 359.5 491.72 356.17 484.26 353.04 476.75 347.66 461.31 345.42 453.35 343.41 445.28 340.33 428.59 339.26 419.96 338.65 414.17 338.21 408.26 337.96 402.24 337.74 396.22 337.71 390.08 337.86 383.84 338.03 377.6 338.39 371.32 338.93 365.03 339.49 358.74 340.22 352.42 341.12 346.1 342.04 339.78 343.13 333.46 344.37 327.15 345.63 320.84 347.04 314.55 348.6 308.27 350.17 302.02 351.87 295.79 353.72 289.6 355.55 283.43 357.52 277.31 359.61 271.25 361.68 265.22 363.87 259.25 366.17 253.36 368.43 247.51 370.8 241.75 373.27 236.09 375.69 230.47 378.21 224.96 380.81 219.57 384.68 211.63 392.74 196.51 396.93 189.36 401.11 182.46 409.8 169.58 414.32 163.6 418.86 157.88 428.36 147.34 433.33 142.5 438.38 137.86 449.03 129.28 454.64 125.29 460.39 121.37 472.52 113.86 478.91 110.2 485.47 106.45 499.26 98.87 506.48 95 511.37 92.27 516.38 89.52 521.5 86.76 526.65 83.84 531.91 80.9 537.27 77.94 542.67 74.84 548.16 71.73 553.74 68.61 559.36 65.36 565.05 62.14 570.83 58.94 576.63 55.65 582.5 52.43 588.43 49.27 594.39 46.09 600.4 43.01 606.46 40.07 612.55 37.16 618.67 34.41 624.82 31.86 631 29.4 637.2 27.16 643.42 25.19 649.65 23.34 655.9 21.78 662.15 20.53 668.41 19.45 674.67 18.69 680.93 18.26 687.19 18.02 693.43 18.13 699.66 18.57" stroke-dasharray="2 5" transform="rotate(54.239999999999995, 711, 400)" opacity="0.45"></path><path d="M691.95 44.05C700.43 45.14 717.04 48.95 725.16 51.57 735.94 55.47 746.43 60.08 756.63 65.23 766.85 70.27 776.81 75.59 786.52 81.05 796.32 86.05 805.95 91.04 815.45 95.96 825.13 100.29 834.79 104.55 844.47 108.76 854.45 112.46 864.58 116.24 874.9 120.17 885.64 123.8 896.66 127.76 907.98 132.1 919.75 136.4 931.83 141.25 944.14 146.67 956.78 152.25 969.52 158.5 982.21 165.41 994.88 172.58 1007.2 180.42 1018.93 188.88 1030.12 197.62 1040.32 206.95 1049.24 216.78 1057.09 226.85 1063.31 237.36 1067.69 248.21 1070.69 259.25 1071.73 270.57 1070.8 282.09 1068.65 293.73 1064.8 305.51 1059.45 317.34 1053.6 329.25 1046.9 341.17 1039.73 353.05 1036.34 359 1032.97 364.93 1029.69 370.83 1026.69 376.74 1023.85 382.61 1021.22 388.45 1018.02 397.15 1013.82 414 1012.87 422.14 1013.16 432.9 1014.58 443.19 1016.92 453 1020.54 462.82 1024.52 472.18 1028.53 481.12 1032.92 490.11 1036.7 498.75 1039.58 507.08 1041.99 515.58 1043.05 523.91 1042.62 532.15 1041.23 540.73 1038.21 549.41 1033.59 558.27 1027.93 567.68 1020.8 577.46 1012.37 587.68 1003.11 598.59 992.81 610.03 981.68 622 970.07 634.58 957.91 647.59 945.36 660.86 932.67 674.39 919.8 687.82 906.88 700.86 894.03 713.46 881.23 725.12 868.55 735.47 856.03 744.58 843.65 751.85 831.43 756.99 819.38 760.39 807.45 761.47 795.65 760.21 783.97 757.42 772.37 752.67 760.84 746.28 749.39 739.4 737.95 731.79 726.55 723.99 720.86 720.44 715.17 717.04 709.49 713.85 703.8 711.1 698.12 708.66 692.44 706.58 683.95 704.53 667.31 703.5 659.16 704.49 648.33 707.64 637.79 712 627.55 717.17 617.31 723.36 607.36 729.42 597.75 734.87 588.13 739.98 578.82 743.66 569.87 745.63 560.87 746.3 552.21 744.88 543.88 741.39 535.48 736.36 527.38 729.38 519.59 720.67 511.67 710.78 504.02 699.58 496.62 687.39 489.04 674.63 481.69 661.33 474.55 647.75 467.19 634.17 460.04 620.63 453.09 607.28 445.93 594.28 438.99 581.59 432.3 569.27 425.45 557.39 418.89 545.84 412.68 534.6 406.39 523.75 400.51 513.09 395.1 502.56 389.72 492.3 384.87 482.06 380.61 471.76 376.46 461.61 372.95 451.32 370.11 440.84 367.44 430.42 365.46 419.76 364.2 408.85 363.45 400.63 362.93 383.87 363.17 375.33 363.64 366.76 365.51 349.65 366.88 341.14 368.88 329.82 371.49 318.61 374.67 307.56 377.85 296.57 381.53 285.8 385.67 275.31 389.72 264.93 394.16 254.89 398.96 245.26 403.58 235.78 408.52 226.75 413.74 218.23 418.73 209.88 424 202.06 429.53 194.81 434.85 187.68 440.46 181.09 446.36 175.04 452.11 169.01 458.2 163.43 464.63 158.26 471 152.95 477.77 147.91 484.93 143.1 492.11 137.93 499.73 132.85 507.76 127.79 515.88 122.22 524.42 116.59 533.36 110.89 542.41 104.66 551.85 98.38 561.64 92.12 571.53 85.49 581.73 79.03 592.21 72.88 602.77 66.69 613.56 61.07 624.53 56.17 635.55 51.64 646.72 48.08 657.98 45.64 666.44 44.33 683.43 43.52 691.94 44.05" stroke-dasharray="6 6" transform="rotate(58.760000000000005, 711, 400)" opacity="0.82"></path><path d="M688.57 69.53C698.95 70.93 709.2 73.39 719.29 76.79 729.39 80.53 739.34 84.97 749.15 89.95 759.01 94.91 768.76 100.18 778.42 105.63 788.18 110.73 797.91 115.87 807.64 120.97 817.54 125.56 827.52 130.09 837.59 134.55 847.91 138.51 858.39 142.48 869.05 146.49 879.99 150.14 891.13 153.97 902.44 158.04 913.99 161.93 925.65 166.2 937.33 170.87 949.08 175.56 960.69 180.75 972 186.46 983.09 192.3 993.61 198.7 1003.37 205.64 1012.52 212.77 1020.6 220.43 1027.43 228.58 1033.28 236.91 1037.66 245.7 1040.43 254.87 1042.1 264.18 1042.14 273.84 1040.59 283.75 1038.14 293.78 1034.35 304.01 1029.4 314.39 1024.17 324.84 1018.28 335.38 1012.03 345.97 1006.34 356.59 1000.88 367.22 995.91 377.81 992.25 388.41 989.55 398.72 987.85 408.71 987.64 418.7 988.33 428.4 989.79 437.8 992.38 447.24 995.33 456.43 998.41 465.4 1001.97 474.47 1005.16 483.4 1007.76 492.24 1010.17 501.28 1011.6 510.35 1011.92 519.49 1011.6 528.97 1009.97 538.65 1007.04 548.57 1003.3 558.94 998.26 569.64 992.03 580.67 985.07 592.16 977.06 603.96 968.15 616.01 958.73 628.34 948.61 640.75 937.94 653.06 927 665.25 915.69 677.01 904.14 688.07 892.5 698.47 880.74 707.76 868.95 715.66 857.19 722.37 845.45 727.36 833.79 730.46 822.2 732.14 810.7 731.91 799.32 729.78 788.01 726.55 776.79 721.82 765.68 715.86 754.63 709.67 743.66 702.99 732.78 696.21 721.93 690.38 711.14 685.23 700.44 681.1 689.74 678.82 679.36 677.95 669.3 678.46 659.22 680.76 649.45 684.1 640 688.16 630.52 693.24 621.35 698.36 612.49 703.15 603.58 707.92 594.98 711.7 586.68 714.23 578.31 715.9 570.21 715.96 562.4 714.32 554.49 711.49 546.82 706.95 539.39 700.82 531.82 693.6 524.46 685.02 517.31 675.32 509.98 664.9 502.82 653.68 495.86 641.89 488.69 629.81 481.7 617.45 474.91 604.97 467.93 592.53 461.17 580.15 454.65 567.92 448 555.9 441.64 544.09 435.62 532.51 429.55 521.18 423.87 510.06 418.65 499.13 413.48 488.4 408.81 477.8 404.7 467.29 400.73 456.92 397.37 446.57 394.65 436.22 392.13 425.94 390.28 415.61 389.14 405.22 388.21 394.85 387.98 384.39 388.48 373.86 389.15 363.33 390.51 352.97 392.5 342.82 394.6 332.68 397.27 322.76 400.46 313.1 403.66 303.48 407.33 294.15 411.41 285.16 415.4 276.23 419.75 267.67 424.41 259.53 428.91 251.46 433.68 243.82 438.7 236.63 443.51 229.51 448.55 222.83 453.82 216.61 458.87 210.38 464.16 204.56 469.69 199.12 475.04 193.58 480.67 188.33 486.58 183.34 492.38 178.09 498.5 173 504.94 168 511.34 162.61 518.11 157.23 525.23 151.82 532.35 145.95 539.86 140.01 547.71 134.03 555.61 127.62 563.87 121.22 572.46 114.91 581.1 108.36 590.06 102.04 599.29 96.1 608.57 90.21 618.1 84.92 627.86 80.35 637.64 76.18 647.61 72.94 657.75 70.75 667.89 69.18 678.17 68.76 688.56 69.53" stroke-dasharray="3 2" transform="rotate(63.28000000000001, 711, 400)" opacity="0.39"></path><path d="M690.29 95.01C699.85 96.37 709.39 98.71 718.88 101.92 728.39 105.46 737.88 109.67 747.34 114.43 756.85 119.22 766.37 124.35 775.9 129.71 785.51 134.83 795.18 140.04 804.91 145.26 814.78 150.07 824.75 154.84 834.81 159.56 845.04 163.82 855.38 168.06 865.82 172.3 876.41 176.14 887.08 180.08 897.75 184.13 908.5 187.93 919.17 191.95 929.67 196.25 940.07 200.43 950.15 204.96 959.75 209.88 969.01 214.8 977.6 220.15 985.36 225.94 992.5 231.8 998.62 238.12 1003.57 244.88 1007.7 251.73 1010.55 259.01 1012.05 266.68 1012.71 274.43 1012.06 282.55 1010.13 290.97 1007.59 299.47 1004.02 308.24 999.55 317.24 994.96 326.28 989.88 335.52 984.51 344.91 979.65 354.32 974.94 363.86 970.6 373.51 967.32 383.15 964.74 392.68 962.93 402.06 962.33 411.46 962.42 420.74 963.12 429.91 964.8 439.13 966.81 448.28 968.98 457.38 971.67 466.59 974.17 475.82 976.3 485.1 978.45 494.56 979.91 504.13 980.57 513.86 980.87 523.83 980.17 534.01 978.45 544.39 976.16 555.04 972.8 565.9 968.4 576.93 963.43 588.15 957.49 599.46 950.68 610.75 943.4 622.03 935.37 633.1 926.72 643.79 917.75 654.14 908.28 663.83 898.44 672.66 888.42 680.75 878.14 687.69 867.68 693.3 857.16 697.87 846.53 700.92 835.86 702.38 825.2 702.74 814.54 701.57 803.92 698.93 793.33 695.54 782.79 691.03 772.34 685.62 761.91 680.18 751.56 674.4 741.31 668.61 731.07 663.65 720.91 659.24 710.85 655.62 700.79 653.51 691.05 652.51 681.63 652.59 672.19 654.16 663.04 656.57 654.2 659.62 645.32 663.62 636.72 667.77 628.41 671.79 620.03 675.99 611.92 679.55 604.07 682.24 596.13 684.46 588.42 685.46 580.94 685.16 573.35 684.01 565.95 681.45 558.76 677.54 551.42 672.71 544.26 666.62 537.27 659.42 530.11 651.49 523.12 642.64 516.29 633.07 509.29 623.05 502.47 612.52 495.83 601.63 489.05 590.57 482.49 579.33 476.17 568.02 469.77 556.72 463.65 545.44 457.86 534.27 452.07 523.19 446.66 512.23 441.68 501.43 436.79 490.75 432.37 480.2 428.49 469.79 424.77 459.48 421.62 449.28 419.1 439.18 416.77 429.14 415.1 419.17 414.09 409.28 413.31 399.41 413.2 389.6 413.79 379.85 414.56 370.1 415.99 360.65 418.01 351.49 420.14 342.34 422.82 333.49 425.98 324.96 429.16 316.44 432.78 308.26 436.77 300.44 440.69 292.62 444.95 285.17 449.49 278.11 453.88 271.04 458.53 264.35 463.39 258.03 468.07 251.68 472.95 245.68 478.02 240.01 482.89 234.25 487.96 228.76 493.23 223.52 498.31 218.09 503.61 212.84 509.14 207.73 514.53 202.32 520.18 196.97 526.09 191.66 531.91 185.96 538.02 180.25 544.43 174.51 550.79 168.38 557.47 162.22 564.46 156.07 571.43 149.61 578.72 143.23 586.32 137 593.92 130.66 601.82 124.61 610 118.99 618.19 113.5 626.65 108.61 635.36 104.44 644.07 100.67 653.02 97.78 662.19 95.86 671.35 94.52 680.72 94.22 690.29 95.01" stroke-dasharray="7 6" transform="rotate(67.8, 711, 400)" opacity="0.69"></path><path d="M696.72 120.5C705.56 121.8 714.44 123.99 723.36 126.97 732.29 130.27 741.28 134.21 750.3 138.68 759.37 143.22 768.49 148.13 777.68 153.31 786.92 158.34 796.24 163.51 805.63 168.76 815.09 173.69 824.63 178.63 834.22 183.55 843.88 188.1 853.58 192.62 863.28 197.12 873.01 201.26 882.68 205.42 892.23 209.64 901.72 213.58 910.99 217.64 919.95 221.85 928.71 225.88 937.03 230.14 944.8 234.66 952.18 239.08 958.87 243.81 964.74 248.87 970.06 253.91 974.45 259.31 977.82 265.07 980.55 270.84 982.21 276.98 982.76 283.49 982.72 290.01 981.64 296.89 979.57 304.1 977.11 311.32 973.86 318.87 969.94 326.69 966.01 334.53 961.69 342.64 957.15 350.99 953.06 359.34 949.05 367.94 945.29 376.75 942.37 385.57 939.96 394.41 938.1 403.25 937.2 412.11 936.81 420.99 936.89 429.9 937.78 438.85 938.95 447.86 940.29 456.92 942.14 466.08 943.89 475.33 945.44 484.68 947.13 494.15 948.37 503.76 949.05 513.49 949.58 523.35 949.39 533.35 948.43 543.44 947.12 553.63 944.97 563.87 941.98 574.09 938.57 584.3 934.34 594.39 929.34 604.24 923.94 613.89 917.84 623.14 911.12 631.83 904.09 640.07 896.52 647.56 888.5 654.15 880.27 660.04 871.69 664.85 862.82 668.47 853.83 671.24 844.63 672.76 835.29 672.98 825.9 672.42 816.4 670.68 806.86 667.82 797.31 664.51 787.73 660.38 778.16 655.61 768.61 650.93 759.07 646.05 749.58 641.16 740.1 637.01 730.67 633.28 721.29 630.14 711.92 628.21 702.82 627.12 693.99 626.86 685.15 627.8 676.56 629.42 668.23 631.56 659.87 634.56 651.74 637.74 643.85 640.92 635.89 644.41 628.15 647.51 620.63 650.04 613.02 652.38 605.6 653.87 598.36 654.4 591.02 654.39 583.84 653.29 576.83 651.1 569.69 648.23 562.7 644.28 555.87 639.32 548.9 633.73 542.08 627.25 535.42 619.98 528.64 612.24 522.03 603.88 515.61 595.01 509.1 585.86 502.81 576.35 496.76 566.59 490.68 556.71 484.89 546.68 479.41 536.58 473.98 526.47 468.91 516.35 464.26 506.28 459.71 496.25 455.63 486.28 452.05 476.43 448.63 466.62 445.76 456.91 443.47 447.34 441.39 437.79 439.91 428.36 439.07 419.06 438.44 409.78 438.44 400.62 439.09 391.59 439.94 382.56 441.39 373.87 443.39 365.52 445.51 357.17 448.14 349.14 451.22 341.45 454.34 333.75 457.85 326.38 461.72 319.34 465.55 312.28 469.68 305.53 474.08 299.11 478.36 292.64 482.88 286.46 487.61 280.58 492.17 274.59 496.92 268.86 501.85 263.36 506.59 257.7 511.5 252.22 516.58 246.89 521.49 241.33 526.57 235.88 531.84 230.49 536.96 224.82 542.29 219.16 547.82 213.52 553.24 207.56 558.9 201.6 564.8 195.63 570.61 189.37 576.69 183.14 583.02 176.98 589.31 170.63 595.87 164.43 602.7 158.46 609.49 152.46 616.57 146.81 623.91 141.62 631.23 136.61 638.83 132.2 646.68 128.48 654.52 125.14 662.62 122.62 670.96 120.99 679.3 119.87 687.89 119.7 696.72 120.5" stroke-dasharray="4 0" transform="rotate(72.32000000000001, 711, 400)" opacity="0.72"></path><path d="M706.41 145.98C714.55 147.21 722.77 149.23 731.05 151.96 739.34 154.98 747.71 158.59 756.13 162.71 764.57 166.94 773.08 171.54 781.64 176.44 790.23 181.27 798.88 186.28 807.54 191.42 816.23 196.35 824.94 201.34 833.62 206.36 842.31 211.09 850.94 215.82 859.47 220.54 867.95 224.96 876.27 229.4 884.36 233.86 892.33 238.04 899.98 242.29 907.24 246.63 914.27 250.75 920.82 255.01 926.79 259.43 932.41 263.71 937.37 268.2 941.59 272.91 946.85 279.99 952.5 295.44 952.82 303.87 952.34 309.57 951.06 315.58 949.04 321.89 946.8 328.2 943.96 334.81 940.61 341.72 937.32 348.62 933.73 355.83 929.96 363.32 926.56 370.8 923.2 378.57 919.98 386.63 917.42 394.7 915.19 402.86 913.35 411.11 912.24 419.38 911.5 427.75 911.08 436.2 911.32 444.69 911.78 453.28 912.38 461.96 913.44 470.68 914.47 479.51 915.39 488.43 916.52 497.39 917.36 506.43 917.83 515.53 918.3 524.65 918.26 533.79 917.67 542.89 916.91 551.97 915.52 560.95 913.48 569.75 911.19 578.41 908.24 586.79 904.64 594.79 900.76 602.51 896.27 609.72 891.2 616.31 885.89 622.45 880.06 627.84 873.77 632.38 867.28 636.34 860.4 639.36 853.17 641.38 845.82 642.78 838.17 643.18 830.3 642.57 822.36 641.46 814.23 639.45 805.95 636.64 797.65 633.59 789.24 629.95 780.76 625.87 772.27 621.97 763.72 617.92 755.15 613.88 746.58 610.46 737.99 607.35 729.39 604.66 720.8 602.92 712.4 601.78 704.2 601.26 696 601.69 687.98 602.63 680.16 603.99 672.31 606.07 664.64 608.35 657.15 610.67 649.61 613.37 642.24 615.86 635.02 618 627.75 620.14 620.62 621.71 613.63 622.62 606.57 623.25 599.65 623.07 592.86 622.07 585.98 620.63 579.23 618.33 572.63 615.18 565.94 611.56 559.38 607.15 552.99 602 546.53 596.45 540.24 590.26 534.14 583.51 528.01 576.46 522.09 568.95 516.42 561.09 510.76 553.03 505.38 544.7 500.33 536.17 495.33 527.54 490.69 518.79 486.45 509.97 482.33 501.11 478.64 492.23 475.43 483.36 472.38 474.5 469.83 465.68 467.82 456.94 466.01 448.2 464.75 439.55 464.07 431 463.6 422.47 463.7 414.03 464.4 405.73 465.29 397.42 466.72 389.43 468.66 381.75 470.72 374.06 473.25 366.66 476.19 359.57 479.18 352.45 482.55 345.61 486.25 339.05 489.92 332.44 493.89 326.08 498.11 319.97 502.25 313.78 506.61 307.81 511.17 302.04 515.6 296.15 520.22 290.43 524.99 284.86 529.61 279.12 534.39 273.49 539.32 267.94 544.09 262.19 549.02 256.5 554.1 250.84 559.04 244.95 564.15 239.08 569.43 233.23 574.58 227.15 579.93 221.1 585.47 215.09 590.91 208.91 596.57 202.81 602.44 196.84 608.24 190.79 614.27 184.94 620.53 179.38 626.74 173.87 633.19 168.74 639.88 164.07 646.54 159.62 653.45 155.73 660.6 152.5 667.73 149.62 675.12 147.49 682.76 146.14 690.38 145.25 698.27 145.18 706.41 145.98" stroke-dasharray="7 7" transform="rotate(76.84, 711, 400)" opacity="0.58"></path><path d="M717.14 171.46C724.56 172.61 732.05 174.44 739.58 176.88 747.12 179.6 754.71 182.85 762.33 186.56 769.97 190.4 777.63 194.61 785.29 199.13 792.96 203.64 800.63 208.37 808.26 213.27 815.88 218.05 823.45 222.93 830.91 227.89 838.34 232.65 845.64 237.45 852.75 242.28 859.78 246.88 866.57 251.5 873.08 256.15 879.43 260.57 885.44 265.03 891.04 269.54 896.42 273.86 901.32 278.26 905.69 282.76 911.53 289.35 919.64 303.08 921.79 310.32 922.8 317.66 921.15 333.4 918.68 341.86 916.74 347.56 914.35 353.52 911.59 359.75 908.91 365.96 906 372.45 902.93 379.21 900.16 385.96 897.39 393 894.67 400.32 892.45 407.65 890.44 415.09 888.66 422.62 887.44 430.17 886.44 437.82 885.67 445.55 885.4 453.3 885.28 461.13 885.27 469.02 885.64 476.92 886.01 484.87 886.32 492.84 886.86 500.81 887.22 508.77 887.34 516.68 887.54 524.55 887.4 532.33 886.88 539.96 886.32 547.49 885.31 554.8 883.82 561.84 882.21 568.68 880.1 575.17 877.48 581.21 873.05 589.58 861.51 602.86 854.48 607.5 846.84 610.73 829.54 612.7 820.05 611.48 813.57 610.13 806.84 608.13 799.9 605.55 792.93 602.9 785.78 599.84 778.48 596.46 771.17 593.3 763.73 590.03 756.19 586.77 748.64 584.01 741.01 581.45 733.3 579.17 725.59 577.63 717.99 576.5 710.52 575.79 703.04 575.81 695.68 576.2 688.44 576.9 681.19 578.19 674.06 579.64 667.05 581.17 660.01 583.07 653.08 584.86 646.27 586.46 639.43 588.18 632.69 589.53 626.07 590.45 619.4 591.27 612.84 591.55 606.4 591.23 599.92 590.68 593.55 589.47 587.32 587.62 581.04 585.48 574.9 582.67 568.92 579.25 562.92 575.54 557.09 571.24 551.45 566.41 545.82 561.33 540.41 555.79 535.24 549.83 530.11 543.69 525.26 537.2 520.72 530.43 516.26 523.55 512.13 516.43 508.38 509.15 504.74 501.8 501.51 494.32 498.71 486.76 496.07 479.18 493.88 471.54 492.18 463.89 490.66 456.24 489.63 448.58 489.12 440.96 488.79 433.34 488.99 425.76 489.71 418.23 490.6 410.7 491.99 403.41 493.83 396.35 495.78 389.28 498.15 382.43 500.91 375.8 503.72 369.15 506.88 362.69 510.34 356.44 513.8 350.14 517.54 344.01 521.52 338.04 525.45 332.01 529.6 326.11 533.94 320.34 538.19 314.47 542.62 308.7 547.19 303.01 551.66 297.2 556.28 291.45 561.03 285.75 565.66 279.91 570.43 274.1 575.33 268.33 580.12 262.41 585.04 256.52 590.1 250.69 595.06 244.71 600.17 238.81 605.44 233.01 610.61 227.12 615.96 221.37 621.47 215.8 626.92 210.24 632.55 204.93 638.36 199.92 644.13 195.02 650.1 190.5 656.26 186.44 662.39 182.6 668.73 179.28 675.29 176.56 681.82 174.15 688.58 172.39 695.55 171.33 702.52 170.65 709.71 170.68 717.14 171.46" stroke-dasharray="7 7" transform="rotate(81.36, 711, 400)" opacity="0.85"></path><path d="M726.47 196.94C733.11 197.99 739.77 199.61 746.43 201.76 753.1 204.14 759.76 206.99 766.41 210.25 773.06 213.65 779.69 217.4 786.26 221.45 792.82 225.53 799.32 229.85 805.72 234.36 812.1 238.83 818.35 243.44 824.45 248.15 830.5 252.76 836.36 257.45 842 262.19 847.54 266.79 852.83 271.44 857.8 276.12 862.65 280.64 867.14 285.21 871.26 289.82 876.95 296.54 885.8 310.09 888.84 316.99 891.05 323.83 892.6 338.04 891.99 345.47 890.71 352.99 886.05 368.89 882.89 377.32 880.79 382.98 878.5 388.87 876.06 394.97 873.86 401.06 871.62 407.38 869.36 413.92 867.47 420.46 865.68 427.08 864.02 433.75 862.76 440.42 861.63 447.15 860.61 453.9 859.98 460.66 859.43 467.44 858.94 474.21 858.76 480.96 858.57 487.69 858.33 494.36 858.32 500.99 858.19 507.54 857.91 513.95 857.74 520.28 857.36 526.45 856.71 532.39 855.64 540.99 851.82 556.37 848.98 562.94 845.64 568.7 836.93 577.26 831.58 579.92 825.73 581.57 812.27 581.59 804.74 580.05 799.57 578.71 794.14 576.91 788.48 574.72 782.78 572.54 776.87 570.08 770.77 567.4 764.65 564.93 758.36 562.38 751.91 559.81 745.45 557.64 738.86 555.58 732.13 553.69 725.4 552.34 718.71 551.25 712.07 550.43 705.44 550.16 698.85 550.12 692.33 550.28 685.81 550.92 679.35 551.67 672.96 552.48 666.56 553.63 660.24 554.73 653.99 555.71 647.74 556.88 641.56 557.82 635.47 558.49 629.37 559.19 623.36 559.52 617.45 559.46 608.63 559.01 591.57 555.56 583.39 552.51 578 550.14 572.78 547.29 567.75 543.99 562.76 540.52 557.98 536.62 553.43 532.34 548.94 527.91 544.71 523.13 540.77 518.04 536.92 512.84 533.37 507.37 530.17 501.66 527.08 495.89 524.34 489.92 521.99 483.78 519.79 477.61 517.98 471.3 516.59 464.89 515.36 458.47 514.57 451.95 514.22 445.38 514.03 438.81 514.3 432.18 515.02 425.53 515.89 418.87 517.19 412.34 518.89 405.94 520.69 399.53 522.87 393.25 525.38 387.1 527.96 380.93 530.84 374.87 534.01 368.93 537.19 362.96 540.63 357.08 544.3 351.3 547.95 345.47 551.81 339.71 555.84 334.03 559.83 328.28 563.99 322.59 568.29 316.95 572.52 311.23 576.9 305.56 581.4 299.93 585.83 294.22 590.37 288.55 595.04 282.94 599.62 277.25 604.32 271.62 609.14 266.08 613.88 260.48 618.75 254.99 623.73 249.64 628.65 244.28 633.7 239.1 638.88 234.14 644.01 229.23 649.28 224.59 654.69 220.26 660.06 216.06 665.58 212.24 671.26 208.83 676.9 205.63 682.71 202.9 688.69 200.69 694.64 198.75 700.77 197.36 707.07 196.57 713.36 196.08 719.83 196.2 726.47 196.94" stroke-dasharray="8 5" transform="rotate(85.88, 711, 400)" opacity="0.28"></path><path d="M732.28 222.43C743.81 224.5 755.22 228.41 766.37 233.84 777.5 239.76 788.29 246.86 798.57 254.82 808.72 262.8 818.21 271.37 826.81 280.32 835.1 288.97 842.32 297.9 848.25 307.01 853.7 315.73 857.73 324.69 860.2 333.85 862.18 342.71 862.64 351.91 861.61 361.46 860.39 370.83 857.98 380.69 854.55 391.03 851.52 401.31 847.95 412.16 844.05 423.53 841.18 434.91 838.44 446.3 835.89 457.54 834.44 468.75 833.01 479.72 831.51 490.22 830.74 500.55 829.54 510.23 827.73 518.97 826.21 527.29 823.78 534.43 820.35 540.13 816.87 545.18 812.25 548.62 806.51 550.3 800.61 551.37 793.58 550.78 785.53 548.62 777.35 546.32 768.22 542.93 758.27 538.73 748.27 535.26 737.52 531.66 726.15 528.21 714.77 526.3 703.35 524.95 692.02 524.13 680.7 524.71 669.48 525.42 658.49 526.02 647.51 527.34 636.77 527.98 626.39 527.71 616.07 527.49 606.14 525.98 596.79 523.12 587.57 519.95 579 515.34 571.28 509.39 563.82 503.1 557.32 495.58 551.97 487.03 547.04 478.27 543.36 468.63 541.1 458.31 539.34 447.92 539.05 436.95 540.33 425.54 542.08 414.12 545.25 402.82 549.63 391.72 554.25 380.59 559.93 369.61 566.47 358.83 573.02 347.94 580.32 337.17 588.19 326.61 595.93 315.89 604.19 305.33 612.88 295.07 621.36 284.74 630.29 274.78 639.58 265.43 648.7 256.24 658.24 247.87 668.17 240.61 677.99 233.89 688.27 228.57 698.96 224.94 709.61 222.17 720.74 221.27 732.28 222.43" stroke-dasharray="2 1" transform="rotate(90.4, 711, 400)" opacity="0.97"></path><path d="M733.24 247.91C742.87 249.67 752.21 252.89 761.15 257.34 770.06 262.21 778.52 268.11 786.39 274.8 794.15 281.62 801.22 289.05 807.47 296.91 813.52 304.68 818.64 312.8 822.72 321.13 826.52 329.28 829.24 337.66 830.8 346.18 832.14 354.54 832.39 363.11 831.58 371.86 830.74 380.5 829.04 389.4 826.57 398.5 824.42 407.57 821.78 416.91 818.74 426.43 816.39 435.95 813.94 445.21 811.46 454.09 809.71 462.94 807.85 471.32 805.84 479.1 804.39 486.73 802.59 493.63 800.38 499.63 797.2 507.7 787.67 517.74 781 519.45 776.25 519.92 770.67 519.25 764.28 517.52 757.83 515.86 750.59 513.45 742.64 510.45 734.65 508.03 725.99 505.41 716.71 502.73 707.44 501.08 698.04 499.64 688.64 498.42 679.27 498.16 669.93 497.91 660.75 497.55 651.62 497.8 642.68 497.62 634.06 496.87 625.53 496.34 617.37 494.98 609.73 492.72 602.24 490.41 595.33 487.09 589.16 482.76 583.23 478.3 578.12 472.85 573.97 466.48 570.15 460 567.36 452.67 565.74 444.59 564.48 436.47 564.42 427.66 565.64 418.26 567.22 408.85 569.95 399.31 573.69 389.76 577.64 380.2 582.49 370.62 588.08 361.11 593.75 351.58 600.07 342.11 606.93 332.81 613.75 323.49 621.06 314.37 628.74 305.58 636.34 296.87 644.31 288.59 652.58 280.93 660.76 273.51 669.26 266.86 678.01 261.21 686.72 256.02 695.71 252.01 704.93 249.35 714.14 247.35 723.6 246.82 733.24 247.91" stroke-dasharray="4 6" transform="rotate(94.92, 711, 400)" opacity="0.08"></path><path d="M729.13 273.39C736.77 274.82 744.04 277.34 750.86 280.81 757.66 284.6 763.98 289.21 769.75 294.5 775.45 299.94 780.54 305.94 784.94 312.36 789.25 318.82 792.83 325.63 795.62 332.67 798.3 339.67 800.2 346.89 801.29 354.23 802.3 361.52 802.57 368.95 802.09 376.44 801.66 383.9 800.61 391.46 798.96 399.04 797.55 406.61 795.69 414.22 793.43 421.79 791.58 429.35 789.51 436.5 787.28 443.17 784.49 452.86 778.43 469.17 774.95 475.51 766.96 484.07 750.53 488.37 743.17 487.03 738.07 486.06 732.4 484.55 726.19 482.59 719.96 481.04 713.21 479.24 705.98 477.25 698.75 475.89 691.4 474.5 684.06 473.12 676.74 472.34 669.44 471.46 662.28 470.43 655.17 469.85 648.23 468.96 641.57 467.71 634.99 466.69 628.74 465.15 622.93 463.04 614.65 459.66 601.18 449.5 596.32 442.65 593.56 437.82 591.6 432.3 590.54 426.14 589.74 419.95 589.85 413.15 590.95 405.76 592.3 398.38 594.55 390.79 597.58 383.1 600.78 375.43 604.7 367.68 609.24 359.96 613.85 352.26 619.03 344.61 624.66 337.13 630.31 329.71 636.38 322.49 642.77 315.62 649.16 308.87 655.85 302.54 662.77 296.77 669.67 291.23 676.8 286.35 684.09 282.28 691.36 278.56 698.8 275.75 706.34 273.98 713.87 272.65 721.5 272.42 729.13 273.39" stroke-dasharray="6 8" transform="rotate(99.44, 711, 400)" opacity="0.22"></path><path d="M720.9 298.87C732.14 301.29 741.97 306.65 750.05 314.15 758.01 322.17 764.1 331.9 768.04 342.56 771.86 353.32 773.64 364.84 773.3 376.43 773.22 388.04 771.48 399.75 768.12 410.91 765.65 422.08 762.1 431.57 757.81 439.07 754.31 446.46 749.73 451.75 744.13 454.75 738.87 457.69 732.22 458.55 724.27 457.41 716.36 456.81 706.98 454.87 696.39 451.76 685.79 450.05 675.05 447.64 664.81 444.71 654.7 442.82 645.26 439.83 637.16 435.6 629.4 431.76 623.21 426.18 619.18 418.88 615.71 411.61 614.58 402.46 616.26 391.62 618.55 380.79 623.36 369.37 630.06 358.1 637.05 346.96 645.71 336.16 655.41 326.49 665.2 317.25 675.94 309.5 687.04 304.04 698.18 299.46 709.66 297.53 720.9 298.87" stroke-dasharray="5 1" transform="rotate(103.96000000000001, 711, 400)" opacity="0.15"></path><path d="M710.41 324.35C717.72 325.92 724.05 329.29 729.23 334 734.38 339.01 738.36 345.19 741.04 352.05 743.73 359.04 745.19 366.59 745.35 374.24 745.67 381.92 744.84 389.64 742.81 396.92 739.84 407.27 730.38 421.75 724.08 425.7 717.33 428.49 700.27 428.56 690.12 426.28 683.17 425.02 676.33 422.98 669.97 420.35 660.8 416.71 646.7 405.9 642.7 398.42 640.76 393.19 640.28 386.96 641.57 379.87 643.15 372.78 646.32 365.53 650.7 358.54 655.26 351.63 660.93 345.11 667.3 339.45 673.76 334.03 680.87 329.63 688.19 326.7 695.55 324.18 703.1 323.29 710.41 324.35" stroke-dasharray="5 6" transform="rotate(108.47999999999999, 711, 400)" opacity="0.61"></path></g></svg>